<svg xmlns="http://www.w3.org/2000/svg" xmlns:xlink="http://www.w3.org/1999/xlink" width="275" height="61" viewBox="0 0 275 61">
  <defs>
    <linearGradient id="linear-gradient" x1="0.024" y1="0.13" x2="1" y2="1" gradientUnits="objectBoundingBox">
      <stop offset="0" stop-color="#c4e562"/>
      <stop offset="1" stop-color="#7f953f"/>
    </linearGradient>
    <linearGradient id="linear-gradient-2" x1="0.024" y1="0.13" x2="1" y2="1" gradientUnits="objectBoundingBox">
      <stop offset="0" stop-color="#004abd"/>
      <stop offset="1" stop-color="#950d32"/>
    </linearGradient>
    <clipPath id="clip-path">
      <path id="Rectangle_9293" data-name="Rectangle 9293" d="M16,0H259a16,16,0,0,1,16,16V61a0,0,0,0,1,0,0H0a0,0,0,0,1,0,0V16A16,16,0,0,1,16,0Z" transform="translate(444 1374)" fill="url(#linear-gradient)"/>
    </clipPath>
    <radialGradient id="radial-gradient" cx="0.5" cy="0.5" r="0.212" gradientUnits="objectBoundingBox">
      <stop offset="0" stop-color="#f1f1f1" stop-opacity="0.09"/>
      <stop offset="1" stop-color="#efefef" stop-opacity="0.545"/>
    </radialGradient>
  </defs>
  <g id="Group_24510" data-name="Group 24510" transform="translate(-104 -239)">
    <path id="Rectangle_9290" data-name="Rectangle 9290" d="M16,0H259a16,16,0,0,1,16,16V61a0,0,0,0,1,0,0H0a0,0,0,0,1,0,0V16A16,16,0,0,1,16,0Z" transform="translate(104 239)" fill="url(#linear-gradient-2)"/>
    <g id="Mask_Group_356" data-name="Mask Group 356" transform="translate(-340 -1135)" opacity="0.544" clip-path="url(#clip-path)">
      <g id="Group_24285" data-name="Group 24285" transform="translate(1542.712 1443.547) rotate(90)">
        <g id="Group_24284" data-name="Group 24284" transform="translate(-199.368 783.32)" opacity="0.2">
          <g id="Group_24282" data-name="Group 24282" transform="translate(0 0)">
            <path id="Path_276351" data-name="Path 276351" d="M-85.607-438.635c-72.364,0-131.236,75.714-131.236,168.78s58.872,168.78,131.236,168.78S45.629-176.79,45.629-269.855-13.243-438.635-85.607-438.635Zm0,342.172a108.819,108.819,0,0,1-52.479-13.627c-16.055-8.733-30.473-21.235-42.854-37.159a181.925,181.925,0,0,1-28.893-55.114,215.631,215.631,0,0,1-10.6-67.493,215.63,215.63,0,0,1,10.6-67.493,181.925,181.925,0,0,1,28.893-55.114c12.381-15.923,26.8-28.425,42.854-37.158a108.819,108.819,0,0,1,52.479-13.627A108.819,108.819,0,0,1-33.127-429.62c16.055,8.733,30.473,21.235,42.854,37.158a181.929,181.929,0,0,1,28.893,55.114,215.63,215.63,0,0,1,10.6,67.493,215.631,215.631,0,0,1-10.6,67.493A181.929,181.929,0,0,1,9.727-147.249c-12.381,15.923-26.8,28.425-42.854,37.159A108.819,108.819,0,0,1-85.607-96.463Z" transform="translate(220.428 443.247)" fill="url(#radial-gradient)"/>
          </g>
          <path id="Path_276352" data-name="Path 276352" d="M-67.067-404.655c-69.208,0-125.513,72.413-125.513,161.42S-136.275-81.814-67.067-81.814,58.446-154.227,58.446-243.235,2.141-404.655-67.067-404.655Zm0-4.643a104.22,104.22,0,0,1,50.261,13.052c15.377,8.365,29.186,20.34,41.042,35.588a174.256,174.256,0,0,1,27.672,52.784,206.522,206.522,0,0,1,10.148,64.64,206.524,206.524,0,0,1-10.148,64.64,174.251,174.251,0,0,1-27.672,52.784C12.381-110.563-1.429-98.587-16.806-90.223A104.222,104.222,0,0,1-67.067-77.171a104.223,104.223,0,0,1-50.261-13.051c-15.377-8.365-29.186-20.34-41.042-35.588a174.251,174.251,0,0,1-27.672-52.784,206.525,206.525,0,0,1-10.148-64.64,206.526,206.526,0,0,1,10.148-64.64,174.254,174.254,0,0,1,27.672-52.784c11.856-15.248,25.666-27.223,41.042-35.588A104.219,104.219,0,0,1-67.067-409.3Z" transform="translate(200.258 416.626)" fill="url(#radial-gradient)"/>
          <path id="Path_276353" data-name="Path 276353" d="M-48.526-370.674c-66.053,0-119.791,69.111-119.791,154.061S-114.579-62.552-48.526-62.552,71.264-131.664,71.264-216.613,17.526-370.674-48.526-370.674Zm0-4.674A99.623,99.623,0,0,1-.483-362.872c14.7,8,27.9,19.445,39.231,34.017A166.574,166.574,0,0,1,65.2-278.4a197.4,197.4,0,0,1,9.7,61.787,197.406,197.406,0,0,1-9.7,61.787,166.571,166.571,0,0,1-26.451,50.454C27.416-89.8,14.215-78.35-.483-70.354A99.625,99.625,0,0,1-48.526-57.878,99.622,99.622,0,0,1-96.569-70.354c-14.7-8-27.9-19.445-39.231-34.018a166.57,166.57,0,0,1-26.45-50.454,197.407,197.407,0,0,1-9.7-61.787,197.407,197.407,0,0,1,9.7-61.787,166.576,166.576,0,0,1,26.45-50.454c11.331-14.572,24.532-26.021,39.231-34.017A99.623,99.623,0,0,1-48.526-375.348Z" transform="translate(180.088 390.005)" fill="url(#radial-gradient)"/>
          <path id="Path_276354" data-name="Path 276354" d="M-29.987-336.692c-62.9,0-114.068,65.809-114.068,146.7s51.171,146.7,114.068,146.7S84.081-109.1,84.081-189.992,32.911-336.692-29.987-336.692Zm0-4.706a95.025,95.025,0,0,1,45.825,11.9c14.021,7.627,26.613,18.55,37.419,32.447a158.893,158.893,0,0,1,25.229,48.124,188.293,188.293,0,0,1,9.253,58.935,188.3,188.3,0,0,1-9.253,58.935A158.9,158.9,0,0,1,53.257-82.933c-10.806,13.9-23.4,24.82-37.419,32.447a95.025,95.025,0,0,1-45.825,11.9,95.025,95.025,0,0,1-45.825-11.9c-14.021-7.627-26.613-18.55-37.419-32.447a158.9,158.9,0,0,1-25.229-48.124,188.292,188.292,0,0,1-9.253-58.934,188.3,188.3,0,0,1,9.253-58.935,158.9,158.9,0,0,1,25.23-48.124c10.805-13.9,23.4-24.82,37.419-32.447A95.025,95.025,0,0,1-29.987-341.4Z" transform="translate(159.918 363.383)" fill="url(#radial-gradient)"/>
          <path id="Path_276355" data-name="Path 276355" d="M-11.447-302.711c-59.742,0-108.345,62.508-108.345,139.341S-71.189-24.029-11.447-24.029,96.9-86.537,96.9-163.37,48.295-302.711-11.447-302.711Zm0-4.737A90.428,90.428,0,0,1,32.16-296.123c13.342,7.259,25.327,17.656,35.607,30.876a151.226,151.226,0,0,1,24.008,45.794,179.188,179.188,0,0,1,8.806,56.082,179.183,179.183,0,0,1-8.806,56.082A151.217,151.217,0,0,1,67.767-61.494C57.487-48.273,45.5-37.877,32.16-30.618A90.428,90.428,0,0,1-11.447-19.293,90.426,90.426,0,0,1-55.054-30.618C-68.4-37.877-80.381-48.273-90.661-61.494a151.215,151.215,0,0,1-24.008-45.794,179.18,179.18,0,0,1-8.806-56.082,179.181,179.181,0,0,1,8.806-56.082,151.219,151.219,0,0,1,24.008-45.794c10.28-13.221,22.265-23.618,35.607-30.876A90.428,90.428,0,0,1-11.447-307.448Z" transform="translate(139.748 336.762)" fill="url(#radial-gradient)"/>
          <path id="Path_276356" data-name="Path 276356" d="M7.093-268.73c-56.586,0-102.623,59.206-102.623,131.981S-49.494-4.767,7.093-4.767,109.715-63.974,109.715-136.749,63.679-268.73,7.093-268.73Zm0-4.768a85.829,85.829,0,0,1,41.389,10.75,109.04,109.04,0,0,1,33.8,29.306,143.537,143.537,0,0,1,22.787,43.464,170.068,170.068,0,0,1,8.358,53.229,170.071,170.071,0,0,1-8.358,53.229A143.545,143.545,0,0,1,82.277-40.056a109.039,109.039,0,0,1-33.8,29.306A85.829,85.829,0,0,1,7.093,0,85.83,85.83,0,0,1-34.3-10.749a109.035,109.035,0,0,1-33.8-29.306A143.54,143.54,0,0,1-90.879-83.52a170.068,170.068,0,0,1-8.358-53.229,170.068,170.068,0,0,1,8.358-53.229,143.542,143.542,0,0,1,22.787-43.464,109.039,109.039,0,0,1,33.8-29.306A85.83,85.83,0,0,1,7.093-273.5Z" transform="translate(119.578 310.141)" fill="url(#radial-gradient)"/>
          <path id="Path_276357" data-name="Path 276357" d="M25.633-234.749c-53.431,0-96.9,55.905-96.9,124.622S-27.8,14.494,25.633,14.494s96.9-55.905,96.9-124.622S79.064-234.749,25.633-234.749Zm0-4.8A81.231,81.231,0,0,1,64.8-229.374a103.209,103.209,0,0,1,31.984,27.736A135.862,135.862,0,0,1,118.354-160.5a160.958,160.958,0,0,1,7.911,50.377,160.959,160.959,0,0,1-7.911,50.377A135.866,135.866,0,0,1,96.788-18.617,103.212,103.212,0,0,1,64.8,9.119a81.232,81.232,0,0,1-39.17,10.174A81.233,81.233,0,0,1-13.537,9.119,103.208,103.208,0,0,1-45.521-18.617,135.87,135.87,0,0,1-67.087-59.751,160.956,160.956,0,0,1-75-110.127,160.951,160.951,0,0,1-67.087-160.5a135.86,135.86,0,0,1,21.566-41.134,103.21,103.21,0,0,1,31.984-27.736A81.232,81.232,0,0,1,25.633-239.548Z" transform="translate(99.408 283.519)" fill="url(#radial-gradient)"/>
          <path id="Path_276358" data-name="Path 276358" d="M44.173-200.768C-6.1-200.768-47-148.165-47-83.506S-6.1,33.756,44.173,33.756s91.178-52.6,91.178-117.262S94.449-200.768,44.173-200.768Zm0-4.83A76.636,76.636,0,0,1,81.126-196,97.383,97.383,0,0,1,111.3-169.834a128.185,128.185,0,0,1,20.345,38.8,151.845,151.845,0,0,1,7.464,47.524,151.846,151.846,0,0,1-7.464,47.524A128.19,128.19,0,0,1,111.3,2.822,97.379,97.379,0,0,1,81.126,28.987a76.635,76.635,0,0,1-36.953,9.6,76.635,76.635,0,0,1-36.953-9.6A97.381,97.381,0,0,1-22.952,2.822,128.188,128.188,0,0,1-43.3-35.982,151.845,151.845,0,0,1-50.76-83.506,151.844,151.844,0,0,1-43.3-131.03a128.191,128.191,0,0,1,20.345-38.8A97.384,97.384,0,0,1,7.22-196,76.636,76.636,0,0,1,44.173-205.6Z" transform="translate(79.238 256.898)" fill="url(#radial-gradient)"/>
          <path id="Path_276359" data-name="Path 276359" d="M62.713-166.787c-47.12,0-85.455,49.3-85.455,109.9s38.335,109.9,85.455,109.9,85.455-49.3,85.455-109.9S109.833-166.787,62.713-166.787Zm0-4.861a72.037,72.037,0,0,1,34.735,9.023,91.553,91.553,0,0,1,28.36,24.6,120.515,120.515,0,0,1,19.124,36.474,142.733,142.733,0,0,1,7.016,44.671,142.73,142.73,0,0,1-7.016,44.671,120.507,120.507,0,0,1-19.124,36.474,91.552,91.552,0,0,1-28.36,24.595,72.037,72.037,0,0,1-34.735,9.023,72.038,72.038,0,0,1-34.734-9.023,91.55,91.55,0,0,1-28.36-24.6A120.511,120.511,0,0,1-19.506-12.213a142.732,142.732,0,0,1-7.016-44.671,142.728,142.728,0,0,1,7.016-44.671A120.509,120.509,0,0,1-.382-138.03a91.548,91.548,0,0,1,28.36-24.595A72.037,72.037,0,0,1,62.713-171.648Z" transform="translate(59.068 230.276)" fill="url(#radial-gradient)"/>
          <path id="Path_276360" data-name="Path 276360" d="M81.252-132.806c-43.965,0-79.733,46-79.733,102.543S37.288,72.279,81.252,72.279s79.732-46,79.732-102.543S125.217-132.806,81.252-132.806Zm0-4.892a67.441,67.441,0,0,1,32.516,8.448,85.722,85.722,0,0,1,26.549,23.025,112.835,112.835,0,0,1,17.9,34.144,133.619,133.619,0,0,1,6.569,41.819,133.621,133.621,0,0,1-6.569,41.819,112.835,112.835,0,0,1-17.9,34.144,85.724,85.724,0,0,1-26.549,23.024,66.8,66.8,0,0,1-65.033,0A85.718,85.718,0,0,1,22.187,45.7a112.828,112.828,0,0,1-17.9-34.144A133.615,133.615,0,0,1-2.284-30.263,133.62,133.62,0,0,1,4.285-72.082a112.833,112.833,0,0,1,17.9-34.144A85.724,85.724,0,0,1,48.736-129.25,67.44,67.44,0,0,1,81.252-137.7Z" transform="translate(38.899 203.655)" fill="url(#radial-gradient)"/>
          <path id="Path_276361" data-name="Path 276361" d="M99.792-98.825c-40.809,0-74.01,42.7-74.01,95.183s33.2,95.183,74.01,95.183,74.01-42.7,74.01-95.183S140.6-98.825,99.792-98.825Zm0-4.923a62.843,62.843,0,0,1,30.3,7.872,79.9,79.9,0,0,1,24.737,21.454,105.156,105.156,0,0,1,16.682,31.814A124.509,124.509,0,0,1,177.63-3.642a124.51,124.51,0,0,1-6.121,38.966,105.161,105.161,0,0,1-16.682,31.814A79.891,79.891,0,0,1,130.09,88.592a62.241,62.241,0,0,1-60.6,0A79.893,79.893,0,0,1,44.757,67.138,105.157,105.157,0,0,1,28.075,35.324,124.508,124.508,0,0,1,21.954-3.642a124.508,124.508,0,0,1,6.121-38.966A105.156,105.156,0,0,1,44.757-74.422,79.891,79.891,0,0,1,69.494-95.876,62.842,62.842,0,0,1,99.792-103.748Z" transform="translate(18.729 177.034)" fill="url(#radial-gradient)"/>
          <path id="Path_276362" data-name="Path 276362" d="M118.333-64.843c-37.654,0-68.287,39.4-68.287,87.823S80.679,110.8,118.333,110.8s68.287-39.4,68.287-87.823S155.986-64.843,118.333-64.843Zm0-4.955a58.244,58.244,0,0,1,28.08,7.3,74.066,74.066,0,0,1,22.925,19.884A97.481,97.481,0,0,1,184.8-13.134a115.392,115.392,0,0,1,5.674,36.114A115.393,115.393,0,0,1,184.8,59.093a97.479,97.479,0,0,1-15.461,29.484,74.063,74.063,0,0,1-22.925,19.884,57.679,57.679,0,0,1-56.16,0A74.065,74.065,0,0,1,67.327,88.577a97.478,97.478,0,0,1-15.46-29.484A115.391,115.391,0,0,1,46.193,22.98a115.391,115.391,0,0,1,5.674-36.114A97.48,97.48,0,0,1,67.327-42.618,74.063,74.063,0,0,1,90.253-62.5,58.245,58.245,0,0,1,118.333-69.8Z" transform="translate(-1.442 150.412)" fill="url(#radial-gradient)"/>
          <path id="Path_276363" data-name="Path 276363" d="M136.872-30.862c-34.5,0-62.565,36.1-62.565,80.463s28.066,80.464,62.565,80.464,62.565-36.1,62.565-80.464S171.371-30.862,136.872-30.862Zm0-4.986a53.648,53.648,0,0,1,25.862,6.721,68.232,68.232,0,0,1,21.113,18.313,89.8,89.8,0,0,1,14.24,27.153A106.283,106.283,0,0,1,203.314,49.6a106.284,106.284,0,0,1-5.226,33.261,89.805,89.805,0,0,1-14.24,27.154,68.231,68.231,0,0,1-21.113,18.313,53.116,53.116,0,0,1-51.724,0A68.234,68.234,0,0,1,89.9,110.016,89.8,89.8,0,0,1,75.657,82.862,106.282,106.282,0,0,1,70.431,49.6,106.283,106.283,0,0,1,75.657,16.34,89.805,89.805,0,0,1,89.9-10.814,68.231,68.231,0,0,1,111.01-29.127,53.647,53.647,0,0,1,136.872-35.848Z" transform="translate(-21.612 123.791)" fill="url(#radial-gradient)"/>
          <path id="Path_276364" data-name="Path 276364" d="M155.412,3.119c-31.343,0-56.842,32.794-56.842,73.1s25.5,73.1,56.842,73.1,56.842-32.794,56.842-73.1S186.755,3.119,155.412,3.119Zm0-5.017a49.047,49.047,0,0,1,23.644,6.146,62.406,62.406,0,0,1,19.3,16.743,82.127,82.127,0,0,1,13.018,24.823,99.137,99.137,0,0,1,0,60.817,82.124,82.124,0,0,1-13.019,24.824,62.4,62.4,0,0,1-19.3,16.743,48.554,48.554,0,0,1-47.288,0,62.409,62.409,0,0,1-19.3-16.743,82.13,82.13,0,0,1-13.018-24.824,99.135,99.135,0,0,1,0-60.816A82.122,82.122,0,0,1,112.467,20.99a62.4,62.4,0,0,1,19.3-16.743A49.049,49.049,0,0,1,155.412-1.9Z" transform="translate(-41.781 97.169)" fill="url(#radial-gradient)"/>
          <path id="Path_276365" data-name="Path 276365" d="M173.952,37.1c-28.187,0-51.12,29.493-51.12,65.744s22.932,65.744,51.12,65.744,51.119-29.493,51.119-65.744S202.139,37.1,173.952,37.1Zm0-5.048a44.449,44.449,0,0,1,21.426,5.571,56.571,56.571,0,0,1,17.49,15.172,74.448,74.448,0,0,1,11.8,22.494,89.816,89.816,0,0,1,0,55.111,74.45,74.45,0,0,1-11.8,22.494,56.575,56.575,0,0,1-17.49,15.172,43.992,43.992,0,0,1-42.852,0,56.575,56.575,0,0,1-17.49-15.173,74.447,74.447,0,0,1-11.8-22.494,89.817,89.817,0,0,1,0-55.111,74.45,74.45,0,0,1,11.8-22.494,56.574,56.574,0,0,1,17.49-15.172A44.453,44.453,0,0,1,173.952,32.052Z" transform="translate(-61.951 70.548)" fill="url(#radial-gradient)"/>
          <path id="Path_276366" data-name="Path 276366" d="M192.492,71.081c-25.032,0-45.4,26.191-45.4,58.384s20.365,58.384,45.4,58.384,45.4-26.191,45.4-58.384S217.524,71.081,192.492,71.081Zm0-5.079A39.853,39.853,0,0,1,211.7,71a50.744,50.744,0,0,1,15.678,13.6,66.774,66.774,0,0,1,10.576,20.164,80.5,80.5,0,0,1,0,49.406,66.771,66.771,0,0,1-10.576,20.164,50.747,50.747,0,0,1-15.678,13.6,39.429,39.429,0,0,1-38.416,0,50.745,50.745,0,0,1-15.679-13.6,66.776,66.776,0,0,1-10.576-20.164,80.5,80.5,0,0,1,0-49.406A66.769,66.769,0,0,1,157.606,84.6,50.744,50.744,0,0,1,173.285,71,39.854,39.854,0,0,1,192.492,66Z" transform="translate(-82.122 43.926)" fill="url(#radial-gradient)"/>
          <path id="Path_276367" data-name="Path 276367" d="M211.032,105.062c-21.877,0-39.674,22.889-39.674,51.025s17.8,51.025,39.674,51.025,39.674-22.889,39.674-51.025S232.909,105.062,211.032,105.062Zm0-5.11a35.254,35.254,0,0,1,16.99,4.42A44.917,44.917,0,0,1,241.889,116.4a59.1,59.1,0,0,1,9.355,17.834,71.183,71.183,0,0,1,0,43.7,59.092,59.092,0,0,1-9.355,17.834A44.914,44.914,0,0,1,228.022,207.8a34.865,34.865,0,0,1-33.98,0,44.917,44.917,0,0,1-13.867-12.032,59.1,59.1,0,0,1-9.355-17.834,71.186,71.186,0,0,1,0-43.7,59.1,59.1,0,0,1,9.355-17.834,44.919,44.919,0,0,1,13.866-12.031A35.257,35.257,0,0,1,211.032,99.952Z" transform="translate(-102.291 17.305)" fill="url(#radial-gradient)"/>
          <path id="Path_276368" data-name="Path 276368" d="M229.572,139.043c-18.721,0-33.952,19.588-33.952,43.665s15.231,43.665,33.952,43.665,33.952-19.588,33.952-43.665S248.293,139.043,229.572,139.043Zm0-5.142a30.657,30.657,0,0,1,14.772,3.844A39.086,39.086,0,0,1,256.4,148.207a51.422,51.422,0,0,1,8.134,15.5,61.867,61.867,0,0,1,0,38,51.417,51.417,0,0,1-8.134,15.5,39.082,39.082,0,0,1-12.055,10.461,30.3,30.3,0,0,1-29.543,0,39.084,39.084,0,0,1-12.055-10.461,51.422,51.422,0,0,1-8.134-15.5,61.868,61.868,0,0,1,0-38,51.422,51.422,0,0,1,8.134-15.5A39.087,39.087,0,0,1,214.8,137.745,30.658,30.658,0,0,1,229.572,133.9Z" transform="translate(-122.461 -9.316)" fill="url(#radial-gradient)"/>
          <path id="Path_276369" data-name="Path 276369" d="M248.111,173.024c-15.566,0-28.229,16.286-28.229,36.305s12.664,36.305,28.229,36.305,28.229-16.286,28.229-36.305S263.677,173.024,248.111,173.024Zm0-5.173a26.059,26.059,0,0,1,12.554,3.269,33.253,33.253,0,0,1,10.243,8.891,43.744,43.744,0,0,1,6.913,13.174,52.551,52.551,0,0,1,0,32.29,43.745,43.745,0,0,1-6.913,13.174,33.259,33.259,0,0,1-10.243,8.891,25.74,25.74,0,0,1-25.107,0,33.252,33.252,0,0,1-10.243-8.891,43.743,43.743,0,0,1-6.913-13.173,52.549,52.549,0,0,1,0-32.29,43.743,43.743,0,0,1,6.913-13.174,33.259,33.259,0,0,1,10.243-8.89A26.06,26.06,0,0,1,248.111,167.851Z" transform="translate(-142.631 -35.937)" fill="url(#radial-gradient)"/>
          <g id="Group_24283" data-name="Group 24283" transform="translate(77.297 139.242)">
            <path id="Path_276370" data-name="Path 276370" d="M266.651,207.005c-12.41,0-22.507,12.985-22.507,28.945s10.1,28.945,22.507,28.945,22.506-12.985,22.506-28.945S279.061,207.005,266.651,207.005Zm0,63.095c-14.641,0-26.553-15.319-26.553-34.149S252.01,201.8,266.651,201.8,293.2,217.12,293.2,235.95,281.292,270.1,266.651,270.1Z" transform="translate(-240.098 -201.801)" fill="url(#radial-gradient)"/>
          </g>
        </g>
      </g>
    </g>
  </g>
</svg>
