<svg xmlns="http://www.w3.org/2000/svg" width="12" height="12" viewBox="0 0 12 12">
  <g id="Group_34079" data-name="Group 34079" transform="translate(-346.74 -317.539)">
    <path id="Vector" d="M.408,2.479a.4.4,0,0,1-.289-.12.411.411,0,0,1,0-.578L1.781.119A.409.409,0,0,1,2.359.7L.7,2.359A.428.428,0,0,1,.408,2.479Z" transform="translate(349.28 323.415)" fill="#f7f7f7"/>
    <path id="Vector-2" data-name="Vector" d="M2.07,2.479a.4.4,0,0,1-.289-.12L.119.7A.409.409,0,0,1,.7.119L2.359,1.781a.411.411,0,0,1,0,.578A.4.4,0,0,1,2.07,2.479Z" transform="translate(349.297 323.431)" fill="#f7f7f7"/>
    <path id="Vector-3" data-name="Vector" d="M.551,1.09A.551.551,0,0,1,0,.545.542.542,0,0,1,.54,0H.551a.545.545,0,1,1,0,1.09Z" transform="translate(353.051 324.113)" fill="#f7f7f7"/>
    <path id="Vector-4" data-name="Vector" d="M.551,1.09A.551.551,0,0,1,0,.545.542.542,0,0,1,.54,0H.551a.545.545,0,1,1,0,1.09Z" transform="translate(355.256 324.113)" fill="#f7f7f7"/>
    <path id="Vector-5" data-name="Vector" d="M.545,1.1A.542.542,0,0,1,0,.556V.545A.545.545,0,1,1,.545,1.1Z" transform="translate(354.153 325.209)" fill="#f7f7f7"/>
    <path id="Vector-6" data-name="Vector" d="M.545,1.1A.542.542,0,0,1,0,.556V.545A.545.545,0,1,1,.545,1.1Z" transform="translate(354.153 323.005)" fill="#f7f7f7"/>
    <path id="Vector-7" data-name="Vector" d="M7.674,9.819H4.326C1.295,9.819,0,8.518,0,5.471V4.349C0,1.3,1.295,0,4.326,0H7.674C10.705,0,12,1.3,12,4.349V5.471C12,8.518,10.705,9.819,7.674,9.819ZM4.326.842C1.753.842.837,1.762.837,4.349V5.471c0,2.587.915,3.507,3.488,3.507H7.674c2.573,0,3.488-.92,3.488-3.507V4.349c0-2.587-.915-3.507-3.488-3.507Z" transform="translate(346.74 319.72)" fill="#f7f7f7"/>
    <path id="Vector-8" data-name="Vector" d="M1.5,3H.954A.954.954,0,0,1,.949,1.09.146.146,0,0,0,1.1.954L1.107.4A.411.411,0,0,1,1.516,0h.005a.412.412,0,0,1,.4.414L1.919.965a.96.96,0,0,1-.954.943.133.133,0,0,0-.142.136.135.135,0,0,0,.136.136H1.5a.412.412,0,0,1,.409.409A.417.417,0,0,1,1.5,3Z" transform="translate(351.78 317.539)" fill="#f7f7f7"/>
  </g>
</svg>
