<svg id="img_white_layer_card_plan" xmlns="http://www.w3.org/2000/svg" xmlns:xlink="http://www.w3.org/1999/xlink" width="221" height="60" viewBox="0 0 221 60">
  <defs>
    <linearGradient id="linear-gradient" x1="0.024" y1="0.13" x2="1" y2="1" gradientUnits="objectBoundingBox">
      <stop offset="0" stop-color="#c4e562"/>
      <stop offset="1" stop-color="#7f953f"/>
    </linearGradient>
    <clipPath id="clip-path">
      <path id="Rectangle_17739" data-name="Rectangle 17739" d="M15,0H206a15,15,0,0,1,15,15V60a0,0,0,0,1,0,0H0a0,0,0,0,1,0,0V15A15,15,0,0,1,15,0Z" transform="translate(469 1374)" fill="url(#linear-gradient)"/>
    </clipPath>
    <radialGradient id="radial-gradient" cx="0.5" cy="0.5" r="0.212" gradientUnits="objectBoundingBox">
      <stop offset="0" stop-color="#f1f1f1" stop-opacity="0.09"/>
      <stop offset="1" stop-color="#efefef" stop-opacity="0.545"/>
    </radialGradient>
  </defs>
  <g id="img_white_layer_card_plan-2" data-name="img_white_layer_card_plan" transform="translate(-469 -1374)" opacity="0.544" clip-path="url(#clip-path)">
    <g id="Group_34077" data-name="Group 34077" transform="translate(754.221 1246.307) rotate(90)">
      <g id="Group_34076" data-name="Group 34076" transform="translate(0 0)" opacity="0.2">
        <g id="Group_34074" data-name="Group 34074" transform="translate(0 0)">
          <path id="Path_295550" data-name="Path 295550" d="M132.611,4.536C61.434,4.536,3.527,79.009,3.527,170.549S61.434,336.563,132.611,336.563,261.7,262.089,261.7,170.549,203.789,4.536,132.611,4.536Zm0,336.562a107.035,107.035,0,0,1-51.619-13.4c-15.791-8.59-29.973-20.887-42.151-36.549a178.943,178.943,0,0,1-28.419-54.21,216.647,216.647,0,0,1,0-132.772A178.943,178.943,0,0,1,38.841,49.953C51.019,34.291,65.2,21.994,80.992,13.4a106.1,106.1,0,0,1,103.238,0c15.792,8.59,29.973,20.887,42.152,36.549A178.946,178.946,0,0,1,254.8,104.163a216.643,216.643,0,0,1,0,132.772,178.947,178.947,0,0,1-28.419,54.21c-12.178,15.662-26.36,27.959-42.152,36.549A107.035,107.035,0,0,1,132.611,341.1Z" fill="url(#radial-gradient)"/>
        </g>
        <path id="Path_295551" data-name="Path 295551" d="M127.006,4.567C58.933,4.567,3.551,75.793,3.551,163.341S58.933,322.115,127.006,322.115,250.462,250.89,250.462,163.341,195.08,4.567,127.006,4.567Zm0-4.567a102.512,102.512,0,0,1,49.437,12.838c15.124,8.227,28.708,20.007,40.369,35a171.4,171.4,0,0,1,27.218,51.919,207.48,207.48,0,0,1,0,127.161,171.4,171.4,0,0,1-27.218,51.919c-11.662,15-25.245,26.777-40.369,35a101.611,101.611,0,0,1-98.874,0c-15.124-8.228-28.708-20.007-40.369-35A171.4,171.4,0,0,1,9.982,226.921a207.484,207.484,0,0,1,0-127.161A171.4,171.4,0,0,1,37.2,47.842c11.661-15,25.245-26.777,40.369-35A102.511,102.511,0,0,1,127.006,0Z" transform="translate(4.002 7.208)" fill="url(#radial-gradient)"/>
        <path id="Path_295552" data-name="Path 295552" d="M121.4,4.6C56.431,4.6,3.575,72.576,3.575,156.133S56.431,307.668,121.4,307.668s117.827-67.979,117.827-151.535S186.371,4.6,121.4,4.6Zm0-4.6a97.99,97.99,0,0,1,47.255,12.272c14.458,7.865,27.443,19.126,38.588,33.46a163.843,163.843,0,0,1,26.017,49.627,198.316,198.316,0,0,1,0,121.549,163.841,163.841,0,0,1-26.017,49.627c-11.145,14.333-24.13,25.6-38.587,33.46a97.122,97.122,0,0,1-94.511,0c-14.458-7.865-27.443-19.126-38.587-33.46A163.84,163.84,0,0,1,9.542,216.907a198.32,198.32,0,0,1,0-121.549A163.846,163.846,0,0,1,35.558,45.731C46.7,31.4,59.688,20.137,74.146,12.272A97.99,97.99,0,0,1,121.4,0Z" transform="translate(8.003 14.417)" fill="url(#radial-gradient)"/>
        <path id="Path_295553" data-name="Path 295553" d="M115.8,4.628C53.93,4.628,3.6,69.359,3.6,148.924s50.332,144.3,112.2,144.3,112.2-64.731,112.2-144.3S177.663,4.628,115.8,4.628ZM115.8,0A93.467,93.467,0,0,1,160.87,11.706c13.791,7.5,26.177,18.246,36.806,31.915a156.288,156.288,0,0,1,24.816,47.335,189.149,189.149,0,0,1,0,115.937,156.293,156.293,0,0,1-24.816,47.335c-10.628,13.669-23.015,24.413-36.806,31.915a92.634,92.634,0,0,1-90.147,0c-13.791-7.5-26.177-18.246-36.805-31.915A156.291,156.291,0,0,1,9.1,206.893a189.155,189.155,0,0,1,0-115.937A156.291,156.291,0,0,1,33.917,43.621C44.546,29.952,56.932,19.208,70.723,11.706A93.468,93.468,0,0,1,115.8,0Z" transform="translate(12.005 21.625)" fill="url(#radial-gradient)"/>
        <path id="Path_295554" data-name="Path 295554" d="M110.192,4.659C51.429,4.659,3.622,66.142,3.622,141.716S51.429,278.773,110.192,278.773s106.569-61.484,106.569-137.057S168.954,4.659,110.192,4.659Zm0-4.659a88.946,88.946,0,0,1,42.892,11.14c13.124,7.14,24.912,17.366,35.024,30.37a148.747,148.747,0,0,1,23.615,45.043,179.987,179.987,0,0,1,0,110.325,148.738,148.738,0,0,1-23.615,45.043c-10.112,13-21.9,23.231-35.023,30.37a88.146,88.146,0,0,1-85.784,0c-13.124-7.14-24.912-17.366-35.023-30.37A148.736,148.736,0,0,1,8.662,196.878a179.988,179.988,0,0,1,0-110.325A148.74,148.74,0,0,1,32.276,41.51c10.112-13,21.9-23.23,35.023-30.37A88.945,88.945,0,0,1,110.192,0Z" transform="translate(16.006 28.833)" fill="url(#radial-gradient)"/>
        <path id="Path_295555" data-name="Path 295555" d="M104.587,4.69C48.928,4.69,3.646,62.925,3.646,134.507s45.282,129.818,100.94,129.818,100.94-58.236,100.94-129.818S160.246,4.69,104.587,4.69Zm0-4.69A84.422,84.422,0,0,1,145.3,10.574,107.252,107.252,0,0,1,178.538,39.4a141.184,141.184,0,0,1,22.414,42.751,170.825,170.825,0,0,1,0,104.714,141.192,141.192,0,0,1-22.414,42.751A107.252,107.252,0,0,1,145.3,258.441a83.659,83.659,0,0,1-81.42,0,107.248,107.248,0,0,1-33.241-28.826A141.187,141.187,0,0,1,8.221,186.864a170.824,170.824,0,0,1,0-104.713A141.189,141.189,0,0,1,30.635,39.4,107.251,107.251,0,0,1,63.876,10.574,84.423,84.423,0,0,1,104.587,0Z" transform="translate(20.008 36.042)" fill="url(#radial-gradient)"/>
        <path id="Path_295556" data-name="Path 295556" d="M98.982,4.72C46.427,4.72,3.67,59.709,3.67,127.3S46.427,249.878,98.982,249.878s95.312-54.989,95.312-122.579S151.537,4.72,98.982,4.72Zm0-4.72A79.9,79.9,0,0,1,137.51,10.007a101.517,101.517,0,0,1,31.46,27.281,133.635,133.635,0,0,1,21.213,40.459,161.658,161.658,0,0,1,0,99.1,133.639,133.639,0,0,1-21.213,40.46,101.52,101.52,0,0,1-31.46,27.281,79.172,79.172,0,0,1-77.057,0,101.516,101.516,0,0,1-31.459-27.281A133.642,133.642,0,0,1,7.781,176.85a161.662,161.662,0,0,1,0-99.1,133.633,133.633,0,0,1,21.213-40.46A101.518,101.518,0,0,1,60.453,10.007,79.9,79.9,0,0,1,98.982,0Z" transform="translate(24.01 43.25)" fill="url(#radial-gradient)"/>
        <path id="Path_295557" data-name="Path 295557" d="M93.377,4.751c-49.451,0-89.683,51.741-89.683,115.34S43.925,235.43,93.377,235.43s89.683-51.741,89.683-115.34S142.828,4.751,93.377,4.751Zm0-4.751a75.379,75.379,0,0,1,36.347,9.441A95.786,95.786,0,0,1,159.4,35.178a126.083,126.083,0,0,1,20.011,38.168,152.493,152.493,0,0,1,0,93.49A126.089,126.089,0,0,1,159.4,205a95.782,95.782,0,0,1-29.677,25.736,74.685,74.685,0,0,1-72.694,0A95.785,95.785,0,0,1,27.352,205,126.086,126.086,0,0,1,7.341,166.835a152.5,152.5,0,0,1,0-93.49A126.09,126.09,0,0,1,27.353,35.178,95.787,95.787,0,0,1,57.03,9.441,75.379,75.379,0,0,1,93.377,0Z" transform="translate(28.011 50.459)" fill="url(#radial-gradient)"/>
        <path id="Path_295558" data-name="Path 295558" d="M87.772,4.782c-46.348,0-84.054,48.494-84.054,108.1s37.707,108.1,84.054,108.1,84.054-48.494,84.054-108.1S134.12,4.782,87.772,4.782Zm0-4.782a70.856,70.856,0,0,1,34.165,8.875,90.052,90.052,0,0,1,27.9,24.192,118.539,118.539,0,0,1,18.811,35.876,143.332,143.332,0,0,1,0,87.878A118.532,118.532,0,0,1,149.832,192.7a90.051,90.051,0,0,1-27.9,24.192,70.2,70.2,0,0,1-68.33,0,90.05,90.05,0,0,1-27.9-24.192A118.535,118.535,0,0,1,6.9,156.821a143.331,143.331,0,0,1,0-87.878,118.533,118.533,0,0,1,18.81-35.876,90.047,90.047,0,0,1,27.9-24.191A70.856,70.856,0,0,1,87.772,0Z" transform="translate(32.013 57.667)" fill="url(#radial-gradient)"/>
        <path id="Path_295559" data-name="Path 295559" d="M82.167,4.812c-43.244,0-78.426,45.246-78.426,100.862S38.923,206.535,82.167,206.535s78.425-45.246,78.425-100.862S125.411,4.812,82.167,4.812Zm0-4.812A66.335,66.335,0,0,1,114.15,8.309a84.317,84.317,0,0,1,26.113,22.647A110.986,110.986,0,0,1,157.873,64.54a134.167,134.167,0,0,1,0,82.267,110.985,110.985,0,0,1-17.609,33.584,84.319,84.319,0,0,1-26.113,22.647,65.708,65.708,0,0,1-63.967,0A84.313,84.313,0,0,1,24.07,180.391,110.978,110.978,0,0,1,6.461,146.807a134.166,134.166,0,0,1,0-82.266A110.983,110.983,0,0,1,24.07,30.956,84.318,84.318,0,0,1,50.184,8.309,66.334,66.334,0,0,1,82.167,0Z" transform="translate(36.014 64.876)" fill="url(#radial-gradient)"/>
        <path id="Path_295560" data-name="Path 295560" d="M76.562,4.843c-40.14,0-72.8,42-72.8,93.623s32.656,93.623,72.8,93.623,72.8-42,72.8-93.623S116.7,4.843,76.562,4.843Zm0-4.843a61.813,61.813,0,0,1,29.8,7.743,78.585,78.585,0,0,1,24.331,21.1A103.432,103.432,0,0,1,147.1,60.138a125,125,0,0,1,0,76.655,103.437,103.437,0,0,1-16.408,31.292,78.581,78.581,0,0,1-24.331,21.1,61.22,61.22,0,0,1-59.6,0,78.584,78.584,0,0,1-24.331-21.1A103.434,103.434,0,0,1,6.021,136.792a125,125,0,0,1,0-76.655A103.432,103.432,0,0,1,22.429,28.845a78.581,78.581,0,0,1,24.331-21.1A61.812,61.812,0,0,1,76.562,0Z" transform="translate(40.016 72.084)" fill="url(#radial-gradient)"/>
        <path id="Path_295561" data-name="Path 295561" d="M70.957,4.873c-37.036,0-67.168,38.751-67.168,86.383S33.921,177.64,70.957,177.64s67.168-38.752,67.168-86.384S107.994,4.873,70.957,4.873Zm0-4.873a57.29,57.29,0,0,1,27.62,7.177,72.852,72.852,0,0,1,22.55,19.558,95.883,95.883,0,0,1,15.207,29,115.836,115.836,0,0,1,0,71.043,95.882,95.882,0,0,1-15.207,29,72.849,72.849,0,0,1-22.549,19.558,56.733,56.733,0,0,1-55.24,0,72.851,72.851,0,0,1-22.549-19.558,95.88,95.88,0,0,1-15.207-29,115.838,115.838,0,0,1,0-71.043,95.882,95.882,0,0,1,15.207-29A72.849,72.849,0,0,1,43.337,7.177,57.29,57.29,0,0,1,70.957,0Z" transform="translate(44.018 79.293)" fill="url(#radial-gradient)"/>
        <path id="Path_295562" data-name="Path 295562" d="M65.352,4.9c-33.933,0-61.539,35.5-61.539,79.144s27.606,79.145,61.539,79.145,61.539-35.5,61.539-79.145S99.285,4.9,65.352,4.9Zm0-4.9A52.768,52.768,0,0,1,90.79,6.611a67.113,67.113,0,0,1,20.767,18.013,88.33,88.33,0,0,1,14.006,26.708,106.675,106.675,0,0,1,0,65.431,88.333,88.333,0,0,1-14.006,26.709A67.112,67.112,0,0,1,90.79,161.486a52.245,52.245,0,0,1-50.876,0,67.116,67.116,0,0,1-20.768-18.013A88.328,88.328,0,0,1,5.141,116.764a106.675,106.675,0,0,1,0-65.431A88.333,88.333,0,0,1,19.147,24.624,67.112,67.112,0,0,1,39.914,6.611,52.767,52.767,0,0,1,65.352,0Z" transform="translate(48.019 86.501)" fill="url(#radial-gradient)"/>
        <path id="Path_295563" data-name="Path 295563" d="M59.747,4.935c-30.829,0-55.91,32.256-55.91,71.905s25.081,71.905,55.91,71.905,55.91-32.257,55.91-71.905S90.576,4.935,59.747,4.935Zm0-4.935A48.243,48.243,0,0,1,83,6.045a61.383,61.383,0,0,1,18.985,16.468,80.781,80.781,0,0,1,12.8,24.417,97.512,97.512,0,0,1,0,59.82,80.777,80.777,0,0,1-12.805,24.417A61.379,61.379,0,0,1,83,147.635a47.758,47.758,0,0,1-46.513,0,61.386,61.386,0,0,1-18.986-16.469A80.784,80.784,0,0,1,4.7,106.75a97.51,97.51,0,0,1,0-59.819A80.776,80.776,0,0,1,17.506,22.513,61.379,61.379,0,0,1,36.491,6.045,48.245,48.245,0,0,1,59.747,0Z" transform="translate(52.021 93.709)" fill="url(#radial-gradient)"/>
        <path id="Path_295564" data-name="Path 295564" d="M54.142,4.965c-27.725,0-50.282,29.009-50.282,64.666S26.417,134.3,54.142,134.3s50.281-29.009,50.281-64.666S81.868,4.965,54.142,4.965Zm0-4.965A43.72,43.72,0,0,1,75.217,5.479,55.644,55.644,0,0,1,92.421,20.4a73.227,73.227,0,0,1,11.6,22.125,88.344,88.344,0,0,1,0,54.208,73.23,73.23,0,0,1-11.6,22.125,55.648,55.648,0,0,1-17.2,14.924,43.271,43.271,0,0,1-42.149,0,55.648,55.648,0,0,1-17.2-14.924A73.227,73.227,0,0,1,4.26,96.735a88.344,88.344,0,0,1,0-54.208A73.229,73.229,0,0,1,15.865,20.4a55.647,55.647,0,0,1,17.2-14.923A43.724,43.724,0,0,1,54.142,0Z" transform="translate(56.022 100.918)" fill="url(#radial-gradient)"/>
        <path id="Path_295565" data-name="Path 295565" d="M48.537,5C23.916,5,3.884,30.758,3.884,62.423S23.916,119.85,48.537,119.85,93.19,94.089,93.19,62.423,73.159,5,48.537,5Zm0-5A39.2,39.2,0,0,1,67.43,4.913,49.913,49.913,0,0,1,82.852,18.292a65.68,65.68,0,0,1,10.4,19.833,79.183,79.183,0,0,1,0,48.6,65.676,65.676,0,0,1-10.4,19.833A49.915,49.915,0,0,1,67.43,119.933a38.783,38.783,0,0,1-37.786,0,49.913,49.913,0,0,1-15.421-13.379A65.681,65.681,0,0,1,3.82,86.721a79.184,79.184,0,0,1,0-48.6,65.675,65.675,0,0,1,10.4-19.833A49.912,49.912,0,0,1,29.644,4.913,39.2,39.2,0,0,1,48.537,0Z" transform="translate(60.024 108.126)" fill="url(#radial-gradient)"/>
        <path id="Path_295566" data-name="Path 295566" d="M42.932,5.027c-21.518,0-39.024,22.514-39.024,50.188S21.415,105.4,42.932,105.4,81.956,82.888,81.956,55.215,64.45,5.027,42.932,5.027Zm0-5.027A34.676,34.676,0,0,1,59.644,4.347,44.18,44.18,0,0,1,73.283,16.182a58.126,58.126,0,0,1,9.2,17.541,70.016,70.016,0,0,1,0,42.984,58.123,58.123,0,0,1-9.2,17.542,44.177,44.177,0,0,1-13.639,11.834,34.294,34.294,0,0,1-33.423,0A44.181,44.181,0,0,1,12.582,94.248a58.131,58.131,0,0,1-9.2-17.541,70.019,70.019,0,0,1,0-42.984,58.126,58.126,0,0,1,9.2-17.542A44.182,44.182,0,0,1,26.221,4.347,34.679,34.679,0,0,1,42.932,0Z" transform="translate(64.025 115.335)" fill="url(#radial-gradient)"/>
        <path id="Path_295567" data-name="Path 295567" d="M37.328,5.057c-18.414,0-33.4,19.267-33.4,42.949s14.981,42.949,33.4,42.949,33.4-19.267,33.4-42.949S55.742,5.057,37.328,5.057Zm0-5.057a30.154,30.154,0,0,1,14.53,3.781,38.445,38.445,0,0,1,11.857,10.29,50.58,50.58,0,0,1,8,15.249,60.852,60.852,0,0,1,0,37.372,50.575,50.575,0,0,1-8,15.25,38.441,38.441,0,0,1-11.857,10.29,29.806,29.806,0,0,1-29.059,0A38.443,38.443,0,0,1,10.94,81.942a50.579,50.579,0,0,1-8-15.249,60.853,60.853,0,0,1,0-37.372,50.579,50.579,0,0,1,8-15.25A38.446,38.446,0,0,1,22.8,3.781,30.156,30.156,0,0,1,37.328,0Z" transform="translate(68.027 122.543)" fill="url(#radial-gradient)"/>
        <path id="Path_295568" data-name="Path 295568" d="M31.723,5.088c-15.31,0-27.766,16.019-27.766,35.71s12.456,35.71,27.766,35.71S59.489,60.489,59.489,40.8,47.033,5.088,31.723,5.088Zm0-5.088A25.632,25.632,0,0,1,44.071,3.215,32.708,32.708,0,0,1,54.146,11.96a43.027,43.027,0,0,1,6.8,12.958,51.689,51.689,0,0,1,0,31.76,43.028,43.028,0,0,1-6.8,12.958A32.714,32.714,0,0,1,44.07,78.381a25.318,25.318,0,0,1-24.7,0A32.707,32.707,0,0,1,9.3,69.636,43.026,43.026,0,0,1,2.5,56.678a51.688,51.688,0,0,1,0-31.761A43.026,43.026,0,0,1,9.3,11.96,32.713,32.713,0,0,1,19.375,3.215,25.633,25.633,0,0,1,31.723,0Z" transform="translate(72.029 129.751)" fill="url(#radial-gradient)"/>
        <g id="Group_34075" data-name="Group 34075" transform="translate(76.03 136.96)">
          <path id="Path_295569" data-name="Path 295569" d="M26.118,5.119C13.911,5.119,3.98,17.89,3.98,33.59S13.911,62.06,26.118,62.06,48.255,49.288,48.255,33.59,38.325,5.119,26.118,5.119Zm0,62.06C11.716,67.179,0,52.111,0,33.59S11.716,0,26.118,0,52.235,15.068,52.235,33.59,40.519,67.179,26.118,67.179Z" fill="url(#radial-gradient)"/>
        </g>
      </g>
    </g>
  </g>
</svg>
