<svg xmlns="http://www.w3.org/2000/svg" width="12" height="12" viewBox="0 0 12 12">
  <g id="vuesax_outline_cup" data-name="vuesax/outline/cup" transform="translate(-364 -380)">
    <g id="cup" transform="translate(364 380)">
      <path id="Vector" d="M.375,1.8A.378.378,0,0,1,0,1.425V.375A.378.378,0,0,1,.375,0,.378.378,0,0,1,.75.375v1.05A.378.378,0,0,1,.375,1.8Z" transform="translate(5.7 7.875)" fill="#f7f7f7"/>
      <path id="Vector-2" data-name="Vector" d="M5.75,2.25H0V1.375A1.374,1.374,0,0,1,1.375,0h3A1.374,1.374,0,0,1,5.75,1.375Zm-5-.75H5V1.375A.625.625,0,0,0,4.375.75h-3a.625.625,0,0,0-.625.625V1.5Z" transform="translate(3.2 9.125)" fill="#f7f7f7"/>
      <path id="Vector-3" data-name="Vector" d="M6.375.75h-6A.378.378,0,0,1,0,.375.378.378,0,0,1,.375,0h6A.378.378,0,0,1,6.75.375.378.378,0,0,1,6.375.75Z" transform="translate(2.7 10.625)" fill="#f7f7f7"/>
      <path id="Vector-4" data-name="Vector" d="M.377,4.44a.381.381,0,0,1-.285-.13.37.37,0,0,1-.06-.4,3.075,3.075,0,0,0,.255-1.24v-1.5A1.633,1.633,0,0,0,.2.65C.192.635.187.615.182.6a1.125,1.125,0,0,1-.02-.22A.378.378,0,0,1,.537,0h.3A1.652,1.652,0,0,1,2.462,1.675,2.948,2.948,0,0,1,1.6,3.74c-.01.01-.04.035-.045.04a2.919,2.919,0,0,1-1.08.645A.346.346,0,0,1,.377,4.44ZM1,.765a2.271,2.271,0,0,1,.035.41v1.5a3.99,3.99,0,0,1-.045.6l.085-.07a2.186,2.186,0,0,0,.635-1.53A.914.914,0,0,0,1,.765Z" transform="translate(8.838 1.78)" fill="#f7f7f7"/>
      <path id="Vector-5" data-name="Vector" d="M2.09,4.4a.31.31,0,0,1-.115-.02A2.782,2.782,0,0,1,.86,3.69,3.032,3.032,0,0,1,0,1.625,1.609,1.609,0,0,1,1.625,0H1.95a.383.383,0,0,1,.315.17.374.374,0,0,1,.03.355,1.478,1.478,0,0,0-.12.6v1.5a3.1,3.1,0,0,0,.26,1.25.378.378,0,0,1-.065.4A.383.383,0,0,1,2.09,4.4ZM1.45.765a.866.866,0,0,0-.7.86A2.291,2.291,0,0,0,1.4,3.175a.432.432,0,0,0,.07.065,3.644,3.644,0,0,1-.05-.615v-1.5A2.9,2.9,0,0,1,1.45.765Z" transform="translate(0.7 1.8)" fill="#f7f7f7"/>
      <path id="Vector-6" data-name="Vector" d="M3.875,7.75A3.882,3.882,0,0,1,0,3.875v-1.5A2.377,2.377,0,0,1,2.375,0h3A2.377,2.377,0,0,1,7.75,2.375v1.5A3.882,3.882,0,0,1,3.875,7.75Zm-1.5-7A1.628,1.628,0,0,0,.75,2.375v1.5a3.125,3.125,0,0,0,6.25,0v-1.5A1.628,1.628,0,0,0,5.375.75Z" transform="translate(2.125 0.625)" fill="#f7f7f7"/>
      <path id="Vector-7" data-name="Vector" d="M0,0H12V12H0Z" fill="none" opacity="0"/>
    </g>
  </g>
</svg>
