<svg xmlns="http://www.w3.org/2000/svg" width="12" height="12" viewBox="0 0 12 12">
  <g id="vuesax_outline_video-octagon" data-name="vuesax/outline/video-octagon" transform="translate(-108 -636)">
    <g id="video-octagon" transform="translate(108 636)">
      <path id="Vector" d="M4.92,10.752a1.939,1.939,0,0,1-.975-.26L.975,8.777A1.963,1.963,0,0,1,0,7.087V3.667a1.963,1.963,0,0,1,.975-1.69L3.945.263a1.942,1.942,0,0,1,1.95,0l2.97,1.715a1.963,1.963,0,0,1,.975,1.69v3.42a1.963,1.963,0,0,1-.975,1.69L5.9,10.492A1.939,1.939,0,0,1,4.92,10.752Zm0-10a1.226,1.226,0,0,0-.6.16L1.35,2.627a1.2,1.2,0,0,0-.6,1.04v3.42a1.209,1.209,0,0,0,.6,1.04L4.32,9.842a1.2,1.2,0,0,0,1.2,0L8.49,8.127a1.2,1.2,0,0,0,.6-1.04V3.667a1.209,1.209,0,0,0-.6-1.04L5.52.912A1.226,1.226,0,0,0,4.92.752Z" transform="translate(1.08 0.622)" fill="#f7f7f7"/>
      <path id="Vector-2" data-name="Vector" d="M1.05,3.681a1.04,1.04,0,0,1-.505-.13A1.226,1.226,0,0,1,0,2.441v-1.2A1.226,1.226,0,0,1,.545.131a1.21,1.21,0,0,1,1.23.085l1.04.6a1.223,1.223,0,0,1,.69,1.025,1.219,1.219,0,0,1-.69,1.025l-1.04.6A1.408,1.408,0,0,1,1.05,3.681ZM1.055.756a.263.263,0,0,0-.13.03.523.523,0,0,0-.17.46v1.2a.536.536,0,0,0,.17.46.52.52,0,0,0,.48-.085l1.04-.6c.2-.115.31-.255.31-.375s-.115-.26-.31-.375L1.4.871A.752.752,0,0,0,1.055.756Z" transform="translate(4.495 4.154)" fill="#f7f7f7"/>
      <path id="Vector-3" data-name="Vector" d="M0,0H12V12H0Z" fill="none" opacity="0"/>
    </g>
  </g>
</svg>
