<svg id="icn_twist_logo" xmlns="http://www.w3.org/2000/svg" xmlns:xlink="http://www.w3.org/1999/xlink" width="89.287" height="36" viewBox="0 0 89.287 36">
  <defs>
    <clipPath id="clip-path">
      <rect id="Rectangle_5015" data-name="Rectangle 5015" width="89.287" height="36" fill="#f7f7f7"/>
    </clipPath>
    <linearGradient id="linear-gradient" x1="0.026" y1="0.029" x2="0.976" y2="0.981" gradientUnits="objectBoundingBox">
      <stop offset="0" stop-color="#e64747"/>
      <stop offset="1" stop-color="#1a66ff"/>
    </linearGradient>
  </defs>
  <g id="Group_22256" data-name="Group 22256" clip-path="url(#clip-path)">
    <rect id="Rectangle_5014" data-name="Rectangle 5014" width="5.087" height="18.651" transform="translate(49.308 9.716)" fill="#f7f7f7"/>
    <path id="Path_265459" data-name="Path 265459" d="M314.333,50.294a8.627,8.627,0,0,1,6.707,2.826l-2.562,3.127a6.492,6.492,0,0,0-1.978-1.319,5.63,5.63,0,0,0-2.2-.452,2.858,2.858,0,0,0-1.451.32,1.076,1.076,0,0,0-.546,1,1.06,1.06,0,0,0,.471.9,7.574,7.574,0,0,0,1.488.753l1.809.753a12.851,12.851,0,0,1,3.881,2.261A4.42,4.42,0,0,1,321.3,63.9a5.533,5.533,0,0,1-.565,2.543,5.424,5.424,0,0,1-1.545,1.865,7.025,7.025,0,0,1-2.317,1.149,10.625,10.625,0,0,1-7.329-.584,8.824,8.824,0,0,1-3.24-2.638l2.562-3.09a10.264,10.264,0,0,0,2.449,1.846,5.865,5.865,0,0,0,2.788.678,3.479,3.479,0,0,0,1.677-.377,1.242,1.242,0,0,0,.7-1.168,1.1,1.1,0,0,0-.527-.98,10.089,10.089,0,0,0-1.394-.716l-2-.829a19,19,0,0,1-2.148-1.017,6.555,6.555,0,0,1-1.582-1.206,5.077,5.077,0,0,1-1-1.526,4.944,4.944,0,0,1-.358-1.94,5.366,5.366,0,0,1,.509-2.393,4.953,4.953,0,0,1,1.432-1.752,6.621,6.621,0,0,1,2.185-1.093,9.523,9.523,0,0,1,2.732-.377" transform="translate(-249.891 -41.031)" fill="#f7f7f7"/>
    <path id="Path_265460" data-name="Path 265460" d="M267.1,0a3.215,3.215,0,0,1,2.28.9,2.976,2.976,0,0,1,.961,2.261,2.933,2.933,0,0,1-.961,2.223,3.215,3.215,0,0,1-2.28.9,3.26,3.26,0,0,1-2.317-.9,2.933,2.933,0,0,1-.961-2.223A2.976,2.976,0,0,1,264.784.9,3.261,3.261,0,0,1,267.1,0" transform="translate(-215.231 0)" opacity="0.998" fill="url(#linear-gradient)"/>
    <path id="Path_265461" data-name="Path 265461" d="M393.627,52.748v4.3h5.851V71.4h5.086V57.044h5.851v-4.3Z" transform="translate(-321.127 -43.033)" fill="#f7f7f7"/>
    <path id="Path_265462" data-name="Path 265462" d="M42.54,52.748c-.465,2.889-2.121,13.183-2.5,15.52l-.06.374,0,.023,0,.009,0,.018a1.444,1.444,0,0,1-2.862-.189l-.119-3.014c-.012-.251-.031-.893-.044-1.137A4.59,4.59,0,0,0,27.9,63.176l-.295,1.1c-.391,1.461-1.18,4.4-1.571,5.86-.062.232-.236.878-.295,1.1a1.439,1.439,0,0,1-.827.983,1.425,1.425,0,0,1-1.965-1.245l0-.047-.016-.379c-.117-2.576-.321-7.661-.449-10.262a8.019,8.019,0,0,0-6.528-7.4l-.526-.078c-.3-.045-.62-.037-.926-.057-.47,0-14.505,0-14.505,0v4.3s4.828-.034,5.85-.033V71.4h5.087V57.025c1.265,0,2.463.009,3.473.008a4,4,0,0,1,1.477.274,3.658,3.658,0,0,1,2.253,3.388c.078,2.826.136,7.76.261,10.546a5.985,5.985,0,0,0,5.921,5.68,6.052,6.052,0,0,0,5.962-4.862c.489-1.8,1.284-4.784,1.776-6.591.063-.227.189-.71.272-1.009.006.154.014.342.017.452.016.509.126,3.232.145,3.807a6.07,6.07,0,0,0,12.008.948c.079-.38.173-1.023.238-1.41.7-4.063,1.628-10.235,2.452-15.507ZM32.323,64.292s0,0,0,0h0l0,0" transform="translate(0 -43.033)" fill="#f7f7f7"/>
  </g>
</svg>
