<svg id="icn_app_store_home" xmlns="http://www.w3.org/2000/svg" width="20" height="20" viewBox="0 0 20 20">
  <g id="Group_24956" data-name="Group 24956">
    <path id="Path_281742" data-name="Path 281742" d="M15.9,0H4.1A4.106,4.106,0,0,0,0,4.1V15.9A4.106,4.106,0,0,0,4.1,20H15.9A4.106,4.106,0,0,0,20,15.9V4.1A4.106,4.106,0,0,0,15.9,0ZM6.158,15.411a.977.977,0,0,1-1.691-.977l.192-.333H6.914ZM4.316,13.32a.977.977,0,1,1,0-1.953H6.237L8.872,6.8,8.158,5.566a.978.978,0,0,1,.357-1.334h0A.978.978,0,0,1,9.85,4.59l.15.26.15-.26a.977.977,0,1,1,1.691.977l-3.349,5.8h2.112l1.128,1.953Zm11.367,0H14.89l.643,1.114a.977.977,0,1,1-1.691.976L10.451,9.538l1.128-1.953,2.184,3.783h1.921a.977.977,0,0,1,0,1.953Z" fill="#fff"/>
  </g>
</svg>
