<svg id="icn_payment_nav" xmlns="http://www.w3.org/2000/svg" width="20" height="20" viewBox="0 0 20 20">
  <g id="empty-wallet-time">
    <path id="Vector" d="M0,0H20V20H0Z" fill="none" opacity="0"/>
    <path id="Vector-2" data-name="Vector" d="M3.333,0A3.33,3.33,0,1,0,6.667,3.333,3.336,3.336,0,0,0,3.333,0Zm.833,3.542a.626.626,0,0,1-.3.533L2.825,4.7a.584.584,0,0,1-.325.092.622.622,0,0,1-.317-1.158l.742-.442v-.9a.617.617,0,0,1,.617-.625.63.63,0,0,1,.625.625Z" transform="translate(0.833 12.5)" fill="#f7f7f7"/>
    <path id="Vector-3" data-name="Vector" d="M10.292,1.583V4.75H9.042V1.583a.332.332,0,0,0-.458-.308L1.975,3.767A1.119,1.119,0,0,0,1.25,4.825v.558A3.113,3.113,0,0,0,0,7.883V4.825A2.373,2.373,0,0,1,1.533,2.6L8.15.1A1.646,1.646,0,0,1,8.708,0,1.588,1.588,0,0,1,10.292,1.583Z" transform="translate(2.083 1.708)" fill="#f7f7f7"/>
    <path id="Vector-4" data-name="Vector" d="M2.5.417V1.25a.416.416,0,0,1-.408.417H.879A.863.863,0,0,1,0,.908.832.832,0,0,1,.245.242.792.792,0,0,1,.829,0H2.087A.418.418,0,0,1,2.5.417Z" transform="translate(15.413 11.667)" fill="#f7f7f7"/>
    <path id="Vector-5" data-name="Vector" d="M14.15,4.333H15a.836.836,0,0,0,.833-.833V3.133A3.14,3.14,0,0,0,12.7,0H3.133A3.089,3.089,0,0,0,1.25.633,3.113,3.113,0,0,0,0,3.133V4.617a.47.47,0,0,0,.633.417,4.524,4.524,0,0,1,1.45-.242A4.591,4.591,0,0,1,6.667,9.375a4.834,4.834,0,0,1-.408,1.842.464.464,0,0,0,.4.658H12.7a3.14,3.14,0,0,0,3.133-3.133V8.583A.836.836,0,0,0,15,7.75h-.725A1.809,1.809,0,0,1,12.5,6.483a1.678,1.678,0,0,1,.45-1.65A1.661,1.661,0,0,1,14.15,4.333ZM9.583,4.167H5.417a.625.625,0,0,1,0-1.25H9.583a.625.625,0,0,1,0,1.25Z" transform="translate(2.083 6.458)" fill="#f7f7f7"/>
  </g>
</svg>
