<svg id="icn_cancel_subscribtion" xmlns="http://www.w3.org/2000/svg" width="20" height="20" viewBox="0 0 20 20">
  <g id="close-square">
    <path id="Vector" d="M11.825,0H4.842A4.447,4.447,0,0,0,0,4.842v6.975a4.45,4.45,0,0,0,4.842,4.85h6.975a4.447,4.447,0,0,0,4.842-4.842V4.842A4.437,4.437,0,0,0,11.825,0Zm-.692,10.25a.629.629,0,0,1,0,.883.624.624,0,0,1-.883,0L8.333,9.217,6.417,11.133a.624.624,0,0,1-.883,0,.629.629,0,0,1,0-.883L7.45,8.333,5.533,6.417a.625.625,0,0,1,.883-.883L8.333,7.45,10.25,5.533a.625.625,0,0,1,.883.883L9.217,8.333Z" transform="translate(1.667 1.667)" fill="#f7f7f7"/>
    <path id="Vector-2" data-name="Vector" d="M0,0H20V20H0Z" transform="translate(20 20) rotate(180)" fill="none" opacity="0"/>
  </g>
</svg>
