<svg id="icn_view_plan" xmlns="http://www.w3.org/2000/svg" width="20" height="20" viewBox="0 0 20 20">
  <g id="task-square">
    <path id="Vector" d="M11.825,0H4.842A4.447,4.447,0,0,0,0,4.842v6.983a4.447,4.447,0,0,0,4.842,4.842h6.983a4.447,4.447,0,0,0,4.842-4.842V4.842A4.447,4.447,0,0,0,11.825,0ZM6.642,10.75,4.767,12.625a.618.618,0,0,1-.442.183.6.6,0,0,1-.442-.183L3.258,12a.614.614,0,0,1,0-.883.629.629,0,0,1,.883,0l.183.183L5.758,9.867a.625.625,0,0,1,.883.883Zm0-5.833L4.767,6.792a.618.618,0,0,1-.442.183.6.6,0,0,1-.442-.183l-.625-.625a.614.614,0,0,1,0-.883.629.629,0,0,1,.883,0l.183.183L5.758,4.033a.625.625,0,0,1,.883.883Zm6.325,7.267H8.592a.625.625,0,1,1,0-1.25h4.375a.625.625,0,0,1,0,1.25Zm0-5.833H8.592a.625.625,0,1,1,0-1.25h4.375a.625.625,0,1,1,0,1.25Z" transform="translate(1.667 1.667)" fill="#f7f7f7"/>
    <path id="Vector-2" data-name="Vector" d="M0,0H20V20H0Z" transform="translate(20 20) rotate(180)" fill="none" opacity="0"/>
  </g>
</svg>
