<svg id="icn_sports_logo" xmlns="http://www.w3.org/2000/svg" width="40" height="30.873" viewBox="0 0 40 30.873">
  <g id="Group_24806" data-name="Group 24806">
    <rect id="Rectangle_5014" data-name="Rectangle 5014" width="2.082" height="7.635" transform="translate(20.186 3.977)" fill="#f7f7f7"/>
    <path id="Path_265459" data-name="Path 265459" d="M309.593,50.294a3.532,3.532,0,0,1,2.746,1.157l-1.049,1.28a2.657,2.657,0,0,0-.81-.54,2.305,2.305,0,0,0-.9-.185,1.17,1.17,0,0,0-.594.131.44.44,0,0,0-.224.409.434.434,0,0,0,.193.37,3.1,3.1,0,0,0,.609.308l.74.308a5.26,5.26,0,0,1,1.589.925,1.809,1.809,0,0,1,.555,1.4,2.264,2.264,0,0,1-.231,1.041,2.22,2.22,0,0,1-.632.764,2.876,2.876,0,0,1-.948.47,4.35,4.35,0,0,1-3-.239,3.612,3.612,0,0,1-1.326-1.08l1.049-1.265a4.2,4.2,0,0,0,1,.756,2.4,2.4,0,0,0,1.141.278,1.424,1.424,0,0,0,.686-.154.509.509,0,0,0,.285-.478.448.448,0,0,0-.216-.4,4.128,4.128,0,0,0-.571-.293l-.818-.339a7.778,7.778,0,0,1-.879-.416,2.684,2.684,0,0,1-.648-.494,2.078,2.078,0,0,1-.409-.625,2.023,2.023,0,0,1-.147-.794,2.2,2.2,0,0,1,.208-.979,2.027,2.027,0,0,1,.586-.717,2.71,2.71,0,0,1,.895-.447,3.9,3.9,0,0,1,1.118-.154" transform="translate(-283.212 -46.502)" fill="#f7f7f7"/>
    <path id="Path_265460" data-name="Path 265460" d="M265.165,0a1.316,1.316,0,0,1,.933.37,1.218,1.218,0,0,1,.393.925,1.2,1.2,0,0,1-.393.91,1.316,1.316,0,0,1-.933.37,1.335,1.335,0,0,1-.949-.37,1.2,1.2,0,0,1-.393-.91,1.218,1.218,0,0,1,.393-.925,1.335,1.335,0,0,1,.949-.37" transform="translate(-243.93 0)" fill="#3ac5ef"/>
    <path id="Path_265461" data-name="Path 265461" d="M393.627,52.748v1.758h2.4v5.876H398.1V54.506h2.4V52.748Z" transform="translate(-363.948 -48.771)" fill="#f7f7f7"/>
    <path id="Path_265462" data-name="Path 265462" d="M17.415,52.748c-.19,1.183-.868,5.4-1.023,6.353l-.025.153,0,.01v0l0,.007a.591.591,0,0,1-1.172-.077l-.049-1.234c-.005-.1-.013-.365-.018-.465a1.879,1.879,0,0,0-3.7-.481l-.121.45-.643,2.4c-.025.1-.1.359-.121.45a.589.589,0,0,1-.339.4.583.583,0,0,1-.8-.51v-.019l-.007-.155c-.048-1.055-.132-3.136-.184-4.2A3.283,3.283,0,0,0,6.532,52.8l-.215-.032c-.124-.019-.254-.015-.379-.024-.192,0-5.938,0-5.938,0v1.758s1.976-.014,2.395-.014v5.89H4.477V54.5c.518,0,1.008,0,1.422,0a1.637,1.637,0,0,1,.6.112A1.5,1.5,0,0,1,7.426,56c.032,1.157.055,3.177.107,4.317a2.45,2.45,0,0,0,2.424,2.325,2.478,2.478,0,0,0,2.441-1.99c.2-.738.526-1.959.727-2.7.026-.093.077-.291.111-.413,0,.063.006.14.007.185.007.208.052,1.323.059,1.558a2.485,2.485,0,0,0,4.916.388c.032-.155.071-.419.1-.577.285-1.663.666-4.19,1-6.348Zm-4.182,4.726s0,0,0,0h0v0" transform="translate(0 -48.771)" fill="#f7f7f7"/>
  </g>
  <text id="Sports" transform="translate(0 26.873)" fill="#3ac5ef" font-size="12" font-family="Poppins-SemiBold, Poppins" font-weight="600"><tspan x="0" y="0">Sports</tspan></text>
</svg>
