<svg id="icn_google_play_home" xmlns="http://www.w3.org/2000/svg" width="18.346" height="19.571" viewBox="0 0 18.346 19.571">
  <g id="Group_24949" data-name="Group 24949" transform="translate(1.234)">
    <g id="Group_24948" data-name="Group 24948" transform="translate(0 0)">
      <path id="Path_281738" data-name="Path 281738" d="M50.727.313A2.485,2.485,0,0,0,48.3.319l8.916,8.225,3-3Z" transform="translate(-48.302 0)" fill="#fff"/>
    </g>
  </g>
  <g id="Group_24951" data-name="Group 24951" transform="translate(0 1.161)">
    <g id="Group_24950" data-name="Group 24950" transform="translate(0)">
      <path id="Path_281739" data-name="Path 281739" d="M16.356,30.365a2.281,2.281,0,0,0-.342,1.195V46.415a2.288,2.288,0,0,0,.319,1.166L25.3,38.615Z" transform="translate(-16.014 -30.365)" fill="#fff"/>
    </g>
  </g>
  <g id="Group_24953" data-name="Group 24953" transform="translate(11.049 6.164)">
    <g id="Group_24952" data-name="Group 24952">
      <path id="Path_281740" data-name="Path 281740" d="M311.17,162.854l-2.857-1.577-3.211,3.209,3.935,3.629,2.134-1.178a2.311,2.311,0,0,0,0-4.084Z" transform="translate(-305.102 -161.277)" fill="#fff"/>
    </g>
  </g>
  <g id="Group_24955" data-name="Group 24955" transform="translate(1.193 10.24)">
    <g id="Group_24954" data-name="Group 24954" transform="translate(0)">
      <path id="Path_281741" data-name="Path 281741" d="M56.237,267.9l-8.991,8.991a2.479,2.479,0,0,0,2.466.023l10.2-5.627Z" transform="translate(-47.246 -267.901)" fill="#fff"/>
    </g>
  </g>
</svg>
