<svg id="icn_setting_nav" xmlns="http://www.w3.org/2000/svg" width="20" height="20" viewBox="0 0 20 20">
  <g id="setting-2">
    <path id="Vector" d="M15.083,5.549c-1.508,0-2.125-1.067-1.375-2.375a1.581,1.581,0,0,0-.583-2.158L11.683.191a1.391,1.391,0,0,0-1.9.5L9.692.849c-.75,1.308-1.983,1.308-2.742,0L6.858.691a1.368,1.368,0,0,0-1.883-.5l-1.442.825A1.59,1.59,0,0,0,2.95,3.182c.758,1.3.142,2.367-1.367,2.367A1.588,1.588,0,0,0,0,7.132V8.6a1.588,1.588,0,0,0,1.583,1.583c1.508,0,2.125,1.067,1.367,2.375a1.581,1.581,0,0,0,.583,2.158l1.442.825a1.391,1.391,0,0,0,1.9-.5l.092-.158c.75-1.308,1.983-1.308,2.742,0l.092.158a1.391,1.391,0,0,0,1.9.5l1.442-.825a1.583,1.583,0,0,0,.583-2.158c-.758-1.308-.142-2.375,1.367-2.375A1.588,1.588,0,0,0,16.675,8.6V7.132A1.6,1.6,0,0,0,15.083,5.549Zm-6.75,5.025a2.708,2.708,0,1,1,2.708-2.708A2.714,2.714,0,0,1,8.333,10.574Z" transform="translate(1.667 2.134)" fill="#f7f7f7"/>
    <path id="Vector-2" data-name="Vector" d="M0,0H20V20H0Z" transform="translate(20 20) rotate(180)" fill="none" opacity="0"/>
  </g>
</svg>
