<svg id="icn_web_home" xmlns="http://www.w3.org/2000/svg" width="24.182" height="24.182" viewBox="0 0 24.182 24.182">
  <path id="icn_web_home-2" data-name="icn_web_home" d="M12.091,24.182A12.091,12.091,0,1,1,24.182,12.091,12.1,12.1,0,0,1,12.091,24.182Zm2.223-5.663a6.838,6.838,0,0,0,3.908-3.485H15.453a12.352,12.352,0,0,1-.682,2.537A7.228,7.228,0,0,1,14.314,18.519ZM5.96,15.033a6.838,6.838,0,0,0,3.908,3.485,7.24,7.24,0,0,1-.457-.948,12.349,12.349,0,0,1-.682-2.537Zm3.908-9.37A6.838,6.838,0,0,0,5.96,9.148H8.729a12.349,12.349,0,0,1,.682-2.537,7.228,7.228,0,0,1,.457-.948Zm2.223-.373c-.5,0-1.078.685-1.518,1.786A10.84,10.84,0,0,0,10,9.148h4.185a10.837,10.837,0,0,0-.574-2.072C13.168,5.974,12.587,5.29,12.091,5.29Zm-6.8,6.8A6.791,6.791,0,0,0,5.5,13.782H8.571c-.05-.55-.076-1.116-.076-1.692s.026-1.141.076-1.692H5.5a6.791,6.791,0,0,0-.213,1.692Zm4.536,1.692h4.53c.053-.547.08-1.114.08-1.692s-.028-1.145-.08-1.692H9.826c-.053.547-.08,1.114-.08,1.692S9.773,13.236,9.826,13.782Zm2.265,5.109c.5,0,1.078-.685,1.518-1.786a10.837,10.837,0,0,0,.574-2.072H10a10.841,10.841,0,0,0,.574,2.072C11.013,18.207,11.6,18.892,12.091,18.892Zm6.8-6.8a6.791,6.791,0,0,0-.213-1.692H15.611c.05.55.076,1.116.076,1.692s-.026,1.141-.076,1.692h3.068A6.791,6.791,0,0,0,18.892,12.091Zm-.67-2.942a6.838,6.838,0,0,0-3.908-3.485,7.238,7.238,0,0,1,.457.948,12.348,12.348,0,0,1,.682,2.537h2.769Zm1.921,2.942a8.052,8.052,0,1,1-8.052-8.052A8.061,8.061,0,0,1,20.143,12.091Z" fill="#fff" fill-rule="evenodd"/>
</svg>
