<svg id="ilu_background_plans_cards" xmlns="http://www.w3.org/2000/svg" xmlns:xlink="http://www.w3.org/1999/xlink" width="220" height="262" viewBox="0 0 220 262">
  <defs>
    <clipPath id="clip-path">
      <rect id="Rectangle_3644" data-name="Rectangle 3644" width="262" height="220" rx="15" transform="translate(122 205)" fill="#ebff9f"/>
    </clipPath>
    <radialGradient id="radial-gradient" cx="0.5" cy="0.5" r="0.297" gradientUnits="objectBoundingBox">
      <stop offset="0" stop-color="#f1f1f1" stop-opacity="0"/>
      <stop offset="1" stop-color="#efefef" stop-opacity="0.212"/>
    </radialGradient>
  </defs>
  <g id="ilu_background_plans_cards-2" data-name="ilu_background_plans_cards" transform="translate(431.717 -122) rotate(90)">
    <g id="Mask_Group_1" data-name="Mask Group 1" transform="translate(0 6.717)" opacity="0.5" clip-path="url(#clip-path)">
      <g id="Group_14370" data-name="Group 14370" transform="translate(13 204.625)" opacity="0.2">
        <g id="Group_14368" data-name="Group 14368" transform="translate(0 0)">
          <path id="Path_262831" data-name="Path 262831" d="M-45.428-438.343c-93.929,0-170.345,80.51-170.345,179.471S-139.357-79.4-45.428-79.4s170.345-80.511,170.345-179.471S48.5-438.343-45.428-438.343Zm0,363.846a166.3,166.3,0,0,1-68.119-14.49A174.2,174.2,0,0,1-169.172-128.5a184.6,184.6,0,0,1-37.5-58.6,191.733,191.733,0,0,1-13.753-71.768,191.732,191.732,0,0,1,13.753-71.768,184.6,184.6,0,0,1,37.5-58.605,174.214,174.214,0,0,1,55.625-39.512,166.3,166.3,0,0,1,68.119-14.49,166.3,166.3,0,0,1,68.119,14.49,174.219,174.219,0,0,1,55.625,39.512,184.607,184.607,0,0,1,37.5,58.605,191.732,191.732,0,0,1,13.753,71.768A191.733,191.733,0,0,1,115.818-187.1a184.606,184.606,0,0,1-37.5,58.6A174.209,174.209,0,0,1,22.69-88.987,166.3,166.3,0,0,1-45.428-74.5Z" transform="translate(220.428 443.247)" fill="url(#radial-gradient)"/>
        </g>
        <path id="Path_262832" data-name="Path 262832" d="M-28.587-404.361c-89.833,0-162.918,77-162.918,171.645S-118.42-61.07-28.587-61.07s162.917-77,162.917-171.645S61.246-404.361-28.587-404.361Zm0-4.937A159.273,159.273,0,0,1,36.653-395.42a166.862,166.862,0,0,1,53.273,37.842,176.821,176.821,0,0,1,35.918,56.128,183.634,183.634,0,0,1,13.173,68.734,183.636,183.636,0,0,1-13.173,68.734,176.816,176.816,0,0,1-35.918,56.127A166.863,166.863,0,0,1,36.653-70.012,159.276,159.276,0,0,1-28.587-56.134a159.277,159.277,0,0,1-65.24-13.878A166.86,166.86,0,0,1-147.1-107.854a176.817,176.817,0,0,1-35.918-56.127,183.636,183.636,0,0,1-13.172-68.734,183.636,183.636,0,0,1,13.172-68.735A176.82,176.82,0,0,1-147.1-357.578,166.858,166.858,0,0,1-93.826-395.42,159.272,159.272,0,0,1-28.587-409.3Z" transform="translate(201.471 417.091)" fill="url(#radial-gradient)"/>
        <path id="Path_262833" data-name="Path 262833" d="M-11.744-370.378c-85.737,0-155.489,73.489-155.489,163.819S-97.481-42.739-11.744-42.739s155.489-73.489,155.489-163.819S73.993-370.378-11.744-370.378Zm0-4.97a152.245,152.245,0,0,1,62.36,13.267,159.512,159.512,0,0,1,50.922,36.172,169.027,169.027,0,0,1,34.333,53.65,175.528,175.528,0,0,1,12.592,65.7,175.53,175.53,0,0,1-12.592,65.7,169.024,169.024,0,0,1-34.333,53.65A159.51,159.51,0,0,1,50.616-51.035a152.25,152.25,0,0,1-62.36,13.266A152.246,152.246,0,0,1-74.1-51.035a159.506,159.506,0,0,1-50.922-36.172,169.023,169.023,0,0,1-34.333-53.65,175.529,175.529,0,0,1-12.592-65.7,175.529,175.529,0,0,1,12.592-65.7,169.029,169.029,0,0,1,34.333-53.65A159.512,159.512,0,0,1-74.1-362.081,152.245,152.245,0,0,1-11.744-375.348Z" transform="translate(182.512 390.933)" fill="url(#radial-gradient)"/>
        <path id="Path_262834" data-name="Path 262834" d="M5.1-336.394c-81.641,0-148.061,69.978-148.061,155.993S-76.544-24.408,5.1-24.408,153.159-94.386,153.159-180.4,86.739-336.394,5.1-336.394Zm0-5a145.218,145.218,0,0,1,59.481,12.655,152.161,152.161,0,0,1,48.57,34.5A161.235,161.235,0,0,1,145.9-243.069,167.427,167.427,0,0,1,157.908-180.4,167.427,167.427,0,0,1,145.9-117.734a161.238,161.238,0,0,1-32.748,51.172,152.157,152.157,0,0,1-48.57,34.5A145.218,145.218,0,0,1,5.1-19.4,145.219,145.219,0,0,1-54.384-32.059a152.154,152.154,0,0,1-48.57-34.5A161.237,161.237,0,0,1-135.7-117.734,167.425,167.425,0,0,1-147.713-180.4,167.428,167.428,0,0,1-135.7-243.069a161.236,161.236,0,0,1,32.748-51.172,152.156,152.156,0,0,1,48.57-34.5A145.219,145.219,0,0,1,5.1-341.4Z" transform="translate(163.555 364.776)" fill="url(#radial-gradient)"/>
        <path id="Path_262835" data-name="Path 262835" d="M21.939-302.411c-77.546,0-140.634,66.467-140.634,148.167S-55.607-6.077,21.939-6.077,162.572-72.544,162.572-154.244,99.484-302.411,21.939-302.411Zm0-5.037a138.193,138.193,0,0,1,56.6,12.043,144.816,144.816,0,0,1,46.219,32.832,153.454,153.454,0,0,1,31.163,48.695,159.33,159.33,0,0,1,11.43,59.634,159.327,159.327,0,0,1-11.43,59.634,153.446,153.446,0,0,1-31.163,48.694A144.806,144.806,0,0,1,78.541-13.083,138.192,138.192,0,0,1,21.939-1.04a138.191,138.191,0,0,1-56.6-12.042A144.8,144.8,0,0,1-80.882-45.915,153.443,153.443,0,0,1-112.045-94.61a159.324,159.324,0,0,1-11.43-59.634,159.325,159.325,0,0,1,11.43-59.634,153.447,153.447,0,0,1,31.163-48.695,144.806,144.806,0,0,1,46.218-32.832A138.192,138.192,0,0,1,21.939-307.448Z" transform="translate(144.598 338.619)" fill="url(#radial-gradient)"/>
        <path id="Path_262836" data-name="Path 262836" d="M38.78-268.428c-73.45,0-133.205,62.957-133.205,140.341S-34.669,12.255,38.78,12.255,171.986-50.7,171.986-128.087,112.23-268.428,38.78-268.428Zm0-5.07A131.164,131.164,0,0,1,92.5-262.067,137.46,137.46,0,0,1,136.37-230.9a145.655,145.655,0,0,1,29.578,46.217,151.223,151.223,0,0,1,10.849,56.6,151.225,151.225,0,0,1-10.849,56.6A145.662,145.662,0,0,1,136.37-25.269,137.458,137.458,0,0,1,92.5,5.894,131.164,131.164,0,0,1,38.78,17.324,131.165,131.165,0,0,1-14.943,5.894,137.453,137.453,0,0,1-58.81-25.269,145.657,145.657,0,0,1-88.388-71.486a151.222,151.222,0,0,1-10.849-56.6,151.223,151.223,0,0,1,10.849-56.6A145.66,145.66,0,0,1-58.809-230.9a137.457,137.457,0,0,1,43.867-31.162A131.166,131.166,0,0,1,38.78-273.5Z" transform="translate(125.64 312.462)" fill="url(#radial-gradient)"/>
        <path id="Path_262837" data-name="Path 262837" d="M55.623-234.445C-13.731-234.445-70.155-175-70.155-101.93S-13.731,30.586,55.623,30.586,181.4-28.86,181.4-101.93,124.976-234.445,55.623-234.445Zm0-5.1a124.137,124.137,0,0,1,50.844,10.819,130.107,130.107,0,0,1,41.515,29.493A137.865,137.865,0,0,1,175.975-155.5a143.122,143.122,0,0,1,10.269,53.568,143.123,143.123,0,0,1-10.269,53.568A137.87,137.87,0,0,1,147.982-4.622,130.111,130.111,0,0,1,106.466,24.87,124.137,124.137,0,0,1,55.623,35.689,124.139,124.139,0,0,1,4.779,24.87,130.1,130.1,0,0,1-36.737-4.623,137.874,137.874,0,0,1-64.73-48.362,143.12,143.12,0,0,1-75-101.93,143.117,143.117,0,0,1-64.73-155.5a137.863,137.863,0,0,1,27.993-43.739A130.107,130.107,0,0,1,4.779-228.729,124.138,124.138,0,0,1,55.623-239.548Z" transform="translate(106.682 286.304)" fill="url(#radial-gradient)"/>
        <path id="Path_262838" data-name="Path 262838" d="M72.464-200.462c-65.258,0-118.35,55.935-118.35,124.69S7.206,48.917,72.464,48.917s118.35-55.936,118.35-124.69S137.722-200.462,72.464-200.462Zm0-5.136a117.112,117.112,0,0,1,47.965,10.207,122.761,122.761,0,0,1,39.164,27.823A130.077,130.077,0,0,1,186-126.307a135.019,135.019,0,0,1,9.688,50.534A135.02,135.02,0,0,1,186-25.238a130.082,130.082,0,0,1-26.408,41.262,122.756,122.756,0,0,1-39.164,27.823A117.112,117.112,0,0,1,72.464,54.053,117.111,117.111,0,0,1,24.5,43.847,122.759,122.759,0,0,1-14.664,16.024,130.08,130.08,0,0,1-41.072-25.238,135.019,135.019,0,0,1-50.76-75.772a135.019,135.019,0,0,1,9.688-50.534,130.083,130.083,0,0,1,26.408-41.262A122.762,122.762,0,0,1,24.5-195.391,117.112,117.112,0,0,1,72.464-205.6Z" transform="translate(87.725 260.147)" fill="url(#radial-gradient)"/>
        <path id="Path_262839" data-name="Path 262839" d="M89.306-166.479c-61.162,0-110.921,52.425-110.921,116.864S28.143,67.249,89.306,67.249,200.227,14.824,200.227-49.615,150.468-166.479,89.306-166.479Zm0-5.169a110.084,110.084,0,0,1,45.086,9.595A115.41,115.41,0,0,1,171.2-135.9a122.294,122.294,0,0,1,24.823,38.784,126.918,126.918,0,0,1,9.107,47.5,126.916,126.916,0,0,1-9.107,47.5A122.286,122.286,0,0,1,171.2,36.67a115.408,115.408,0,0,1-36.812,26.153,110.084,110.084,0,0,1-45.086,9.595A110.085,110.085,0,0,1,44.22,62.823,115.407,115.407,0,0,1,7.408,36.67,122.29,122.29,0,0,1-17.415-2.114a126.917,126.917,0,0,1-9.107-47.5,126.914,126.914,0,0,1,9.107-47.5A122.29,122.29,0,0,1,7.408-135.9,115.405,115.405,0,0,1,44.22-162.053,110.084,110.084,0,0,1,89.306-171.648Z" transform="translate(68.767 233.99)" fill="url(#radial-gradient)"/>
        <path id="Path_262840" data-name="Path 262840" d="M106.147-132.5C49.081-132.5,2.653-83.582,2.653-23.458S49.081,85.58,106.147,85.58,209.641,36.666,209.641-23.458,163.214-132.5,106.147-132.5Zm0-5.2a103.059,103.059,0,0,1,42.207,8.983,108.058,108.058,0,0,1,34.46,24.483,114.5,114.5,0,0,1,23.238,36.306,118.816,118.816,0,0,1,8.526,44.468,118.818,118.818,0,0,1-8.526,44.468,114.5,114.5,0,0,1-23.238,36.307A108.061,108.061,0,0,1,148.354,81.8a103.057,103.057,0,0,1-42.206,8.983A103.057,103.057,0,0,1,63.941,81.8,108.054,108.054,0,0,1,29.48,57.316,114.5,114.5,0,0,1,6.242,21.01,118.811,118.811,0,0,1-2.284-23.458,118.816,118.816,0,0,1,6.242-67.926,114.5,114.5,0,0,1,29.48-104.232a108.061,108.061,0,0,1,34.46-24.483A103.058,103.058,0,0,1,106.147-137.7Z" transform="translate(49.81 207.833)" fill="url(#radial-gradient)"/>
        <path id="Path_262841" data-name="Path 262841" d="M122.989-98.513c-52.971,0-96.066,45.4-96.066,101.212s43.095,101.212,96.066,101.212S219.054,58.508,219.054,2.7,175.959-98.513,122.989-98.513Zm0-5.235a96.031,96.031,0,0,1,39.328,8.371,100.711,100.711,0,0,1,32.109,22.813,106.711,106.711,0,0,1,21.653,33.829A110.715,110.715,0,0,1,224.023,2.7a110.716,110.716,0,0,1-7.945,41.434,106.716,106.716,0,0,1-21.653,33.829,100.707,100.707,0,0,1-32.109,22.813,96.567,96.567,0,0,1-78.655,0A100.709,100.709,0,0,1,51.552,77.962,106.712,106.712,0,0,1,29.9,44.134,110.714,110.714,0,0,1,21.954,2.7,110.714,110.714,0,0,1,29.9-38.735,106.712,106.712,0,0,1,51.553-72.564,100.707,100.707,0,0,1,83.661-95.377,96.03,96.03,0,0,1,122.989-103.748Z" transform="translate(30.853 181.676)" fill="url(#radial-gradient)"/>
        <path id="Path_262842" data-name="Path 262842" d="M139.831-64.529c-48.875,0-88.638,41.893-88.638,93.386s39.763,93.386,88.638,93.386,88.638-41.893,88.638-93.386S188.706-64.529,139.831-64.529Zm0-5.269a89,89,0,0,1,36.448,7.759A93.362,93.362,0,0,1,206.037-40.9,98.923,98.923,0,0,1,226.1-9.545a102.608,102.608,0,0,1,7.365,38.4,102.609,102.609,0,0,1-7.365,38.4,98.923,98.923,0,0,1-20.068,31.351,93.358,93.358,0,0,1-29.757,21.143,89.489,89.489,0,0,1-72.9,0A93.36,93.36,0,0,1,73.625,98.609,98.92,98.92,0,0,1,53.558,67.257a102.608,102.608,0,0,1-7.365-38.4,102.608,102.608,0,0,1,7.365-38.4A98.924,98.924,0,0,1,73.626-40.9a93.359,93.359,0,0,1,29.757-21.143A89,89,0,0,1,139.831-69.8Z" transform="translate(11.895 155.518)" fill="url(#radial-gradient)"/>
        <path id="Path_262843" data-name="Path 262843" d="M156.673-30.546c-44.779,0-81.21,38.382-81.21,85.56s36.431,85.56,81.21,85.56,81.21-38.382,81.21-85.56S201.452-30.546,156.673-30.546Zm0-5.3A81.978,81.978,0,0,1,190.242-28.7,86.007,86.007,0,0,1,217.648-9.227a91.133,91.133,0,0,1,18.483,28.873,95.589,95.589,0,0,1,0,70.735,91.136,91.136,0,0,1-18.483,28.874,86,86,0,0,1-27.406,19.473,82.409,82.409,0,0,1-67.139,0A86.01,86.01,0,0,1,95.7,119.255,91.131,91.131,0,0,1,77.215,90.381a95.589,95.589,0,0,1,0-70.735A91.136,91.136,0,0,1,95.7-9.228,86.005,86.005,0,0,1,123.1-28.7,81.976,81.976,0,0,1,156.673-35.848Z" transform="translate(-7.063 129.361)" fill="url(#radial-gradient)"/>
        <path id="Path_262844" data-name="Path 262844" d="M173.514,3.437c-40.683,0-73.782,34.871-73.782,77.734s33.1,77.734,73.782,77.734S247.3,124.034,247.3,81.171,214.2,3.437,173.514,3.437Zm0-5.335A74.946,74.946,0,0,1,204.2,4.637a78.661,78.661,0,0,1,25.054,17.8,83.346,83.346,0,0,1,16.9,26.4,87.378,87.378,0,0,1,0,64.669,83.344,83.344,0,0,1-16.9,26.4A78.655,78.655,0,0,1,204.2,157.7a75.331,75.331,0,0,1-61.38,0,78.665,78.665,0,0,1-25.054-17.8,83.348,83.348,0,0,1-16.9-26.4,87.376,87.376,0,0,1,0-64.669,83.34,83.34,0,0,1,16.9-26.4,78.656,78.656,0,0,1,25.054-17.8A74.949,74.949,0,0,1,173.514-1.9Z" transform="translate(-26.02 103.204)" fill="url(#radial-gradient)"/>
        <path id="Path_262845" data-name="Path 262845" d="M190.356,37.42C153.768,37.42,124,68.78,124,107.328s29.766,69.908,66.354,69.908,66.354-31.361,66.354-69.908S226.943,37.42,190.356,37.42Zm0-5.368a67.918,67.918,0,0,1,27.811,5.923,71.3,71.3,0,0,1,22.7,16.133,75.553,75.553,0,0,1,15.313,23.918,79.164,79.164,0,0,1,0,58.6,75.555,75.555,0,0,1-15.313,23.919,71.309,71.309,0,0,1-22.7,16.133,68.252,68.252,0,0,1-55.622,0,71.309,71.309,0,0,1-22.7-16.134,75.554,75.554,0,0,1-15.313-23.918,79.164,79.164,0,0,1,0-58.6,75.557,75.557,0,0,1,15.313-23.919,71.308,71.308,0,0,1,22.7-16.133A67.924,67.924,0,0,1,190.356,32.052Z" transform="translate(-44.978 77.047)" fill="url(#radial-gradient)"/>
        <path id="Path_262846" data-name="Path 262846" d="M207.2,71.4c-32.492,0-58.926,27.85-58.926,62.082s26.434,62.083,58.926,62.083,58.926-27.85,58.926-62.083S239.69,71.4,207.2,71.4Zm0-5.4a60.893,60.893,0,0,1,24.932,5.311,63.957,63.957,0,0,1,20.351,14.464,67.768,67.768,0,0,1,13.728,21.441,70.954,70.954,0,0,1,0,52.535,67.765,67.765,0,0,1-13.728,21.441,63.961,63.961,0,0,1-20.351,14.463,61.173,61.173,0,0,1-49.864,0,63.958,63.958,0,0,1-20.351-14.464,67.77,67.77,0,0,1-13.728-21.441,70.956,70.956,0,0,1,0-52.535,67.764,67.764,0,0,1,13.729-21.441,63.958,63.958,0,0,1,20.35-14.463A60.9,60.9,0,0,1,207.2,66Z" transform="translate(-63.936 50.889)" fill="url(#radial-gradient)"/>
        <path id="Path_262847" data-name="Path 262847" d="M224.04,105.386c-28.4,0-51.5,24.339-51.5,54.257s23.1,54.257,51.5,54.257,51.5-24.339,51.5-54.257S252.436,105.386,224.04,105.386Zm0-5.434a53.865,53.865,0,0,1,22.053,4.7,56.609,56.609,0,0,1,18,12.794,59.977,59.977,0,0,1,12.143,18.963,62.741,62.741,0,0,1,0,46.468,59.974,59.974,0,0,1-12.143,18.964,56.607,56.607,0,0,1-18,12.793,54.091,54.091,0,0,1-44.106,0,56.609,56.609,0,0,1-18-12.794,59.981,59.981,0,0,1-12.143-18.963,62.743,62.743,0,0,1,0-46.469,59.978,59.978,0,0,1,12.143-18.964,56.612,56.612,0,0,1,18-12.793A53.868,53.868,0,0,1,224.04,99.952Z" transform="translate(-82.893 24.732)" fill="url(#radial-gradient)"/>
        <path id="Path_262848" data-name="Path 262848" d="M240.881,139.368c-24.3,0-44.07,20.829-44.07,46.431s19.77,46.431,44.07,46.431,44.07-20.829,44.07-46.431S265.181,139.368,240.881,139.368Zm0-5.467a46.838,46.838,0,0,1,19.174,4.088A49.258,49.258,0,0,1,275.7,149.113,52.191,52.191,0,0,1,286.26,165.6a54.53,54.53,0,0,1,0,40.4A52.188,52.188,0,0,1,275.7,222.486a49.253,49.253,0,0,1-15.647,11.124,47.012,47.012,0,0,1-38.348,0,49.256,49.256,0,0,1-15.648-11.124A52.19,52.19,0,0,1,195.5,206a54.531,54.531,0,0,1,0-40.4,52.192,52.192,0,0,1,10.558-16.486,49.259,49.259,0,0,1,15.647-11.123A46.84,46.84,0,0,1,240.881,133.9Z" transform="translate(-101.85 -1.424)" fill="url(#radial-gradient)"/>
        <path id="Path_262849" data-name="Path 262849" d="M257.723,173.352c-20.2,0-36.642,17.318-36.642,38.6s16.438,38.6,36.642,38.6,36.642-17.318,36.642-38.6S277.927,173.352,257.723,173.352Zm0-5.5a39.81,39.81,0,0,1,16.295,3.476,41.9,41.9,0,0,1,13.3,9.454,44.4,44.4,0,0,1,8.973,14.008,46.32,46.32,0,0,1,0,34.335,44.4,44.4,0,0,1-8.973,14.008,41.911,41.911,0,0,1-13.3,9.454,39.933,39.933,0,0,1-32.589,0,41.9,41.9,0,0,1-13.3-9.454,44.4,44.4,0,0,1-8.973-14.008,46.318,46.318,0,0,1,0-34.335,44.4,44.4,0,0,1,8.973-14.008,41.911,41.911,0,0,1,13.3-9.453A39.813,39.813,0,0,1,257.723,167.851Z" transform="translate(-120.808 -27.581)" fill="url(#radial-gradient)"/>
        <g id="Group_14369" data-name="Group 14369" transform="translate(100.333 148.062)">
          <path id="Path_262850" data-name="Path 262850" d="M274.564,207.335c-16.109,0-29.214,13.807-29.214,30.779s13.105,30.779,29.214,30.779,29.214-13.807,29.214-30.779S290.673,207.335,274.564,207.335Zm0,67.091c-19,0-34.466-16.29-34.466-36.313S255.56,201.8,274.564,201.8s34.466,16.29,34.466,36.313S293.569,274.426,274.564,274.426Z" transform="translate(-240.098 -201.801)" fill="url(#radial-gradient)"/>
        </g>
      </g>
    </g>
  </g>
</svg>
