<svg id="img_default_twist" xmlns="http://www.w3.org/2000/svg" xmlns:xlink="http://www.w3.org/1999/xlink" width="155" height="112" viewBox="0 0 155 112">
  <defs>
    <clipPath id="clip-path">
      <rect id="Rectangle_5015" data-name="Rectangle 5015" width="60.164" height="24.258" fill="#f7f7f7"/>
    </clipPath>
    <linearGradient id="linear-gradient" x1="0.026" y1="0.029" x2="0.976" y2="0.981" gradientUnits="objectBoundingBox">
      <stop offset="0" stop-color="#e64747"/>
      <stop offset="1" stop-color="#1a66ff"/>
    </linearGradient>
  </defs>
  <g id="Games" fill="#0a0b10" stroke="#c9c5c5" stroke-width="0.5">
    <rect width="155" height="112" rx="15" stroke="none"/>
    <rect x="0.25" y="0.25" width="154.5" height="111.5" rx="14.75" fill="none"/>
  </g>
  <g id="Group_34192" data-name="Group 34192" transform="translate(47 43.742)">
    <g id="Group_22256" data-name="Group 22256" clip-path="url(#clip-path)">
      <rect id="Rectangle_5014" data-name="Rectangle 5014" width="3.428" height="12.567" transform="translate(33.225 6.547)" fill="#f7f7f7"/>
      <path id="Path_265459" data-name="Path 265459" d="M311.716,50.294a5.813,5.813,0,0,1,4.519,1.9l-1.727,2.107a4.374,4.374,0,0,0-1.333-.889,3.794,3.794,0,0,0-1.485-.3,1.926,1.926,0,0,0-.977.216.725.725,0,0,0-.368.673.714.714,0,0,0,.317.609,5.1,5.1,0,0,0,1,.508l1.219.508a8.659,8.659,0,0,1,2.615,1.523,2.978,2.978,0,0,1,.914,2.31,3.728,3.728,0,0,1-.381,1.714,3.655,3.655,0,0,1-1.041,1.257,4.733,4.733,0,0,1-1.561.774,7.159,7.159,0,0,1-4.938-.394,5.946,5.946,0,0,1-2.183-1.777l1.726-2.082a6.916,6.916,0,0,0,1.65,1.244,3.952,3.952,0,0,0,1.879.457,2.344,2.344,0,0,0,1.13-.254.837.837,0,0,0,.47-.787.738.738,0,0,0-.355-.66,6.8,6.8,0,0,0-.939-.482l-1.346-.559a12.8,12.8,0,0,1-1.447-.685,4.417,4.417,0,0,1-1.066-.812,3.422,3.422,0,0,1-.673-1.028,3.332,3.332,0,0,1-.241-1.307,3.615,3.615,0,0,1,.343-1.612,3.337,3.337,0,0,1,.965-1.181,4.461,4.461,0,0,1,1.473-.736,6.417,6.417,0,0,1,1.841-.254" transform="translate(-268.293 -44.052)" fill="#f7f7f7"/>
      <path id="Path_265460" data-name="Path 265460" d="M266.032,0a2.167,2.167,0,0,1,1.536.609,2.006,2.006,0,0,1,.647,1.523,1.976,1.976,0,0,1-.647,1.5,2.166,2.166,0,0,1-1.536.609,2.2,2.2,0,0,1-1.562-.609,1.976,1.976,0,0,1-.647-1.5A2.006,2.006,0,0,1,264.47.609,2.2,2.2,0,0,1,266.032,0" transform="translate(-231.08 0)" opacity="0.998" fill="url(#linear-gradient)"/>
      <path id="Path_265461" data-name="Path 265461" d="M393.627,52.748v2.894h3.942v9.673H401V55.642h3.942V52.748Z" transform="translate(-344.775 -46.202)" fill="#f7f7f7"/>
      <path id="Path_265462" data-name="Path 265462" d="M28.664,52.748c-.313,1.947-1.429,8.883-1.683,10.458l-.041.252,0,.016,0,.006,0,.012A.973.973,0,0,1,25,63.364l-.08-2.031c-.008-.169-.021-.6-.03-.766a3.093,3.093,0,0,0-6.092-.792l-.2.74c-.264.985-.8,2.964-1.059,3.949-.041.157-.159.591-.2.74a.97.97,0,0,1-.557.662.96.96,0,0,1-1.324-.839V65l-.011-.255c-.079-1.736-.217-5.162-.3-6.915a5.4,5.4,0,0,0-4.4-4.986l-.354-.053c-.2-.031-.418-.025-.624-.039-.317,0-9.774,0-9.774,0v2.894s3.253-.023,3.942-.022v9.695H7.37V55.63c.853,0,1.659.006,2.34.006a2.694,2.694,0,0,1,1,.185A2.465,2.465,0,0,1,12.223,58.1c.052,1.9.091,5.229.176,7.106a4.033,4.033,0,0,0,3.99,3.827,4.078,4.078,0,0,0,4.017-3.276c.33-1.214.865-3.224,1.2-4.441.042-.153.127-.478.183-.68,0,.1.01.231.012.3.011.343.085,2.178.1,2.565a4.09,4.09,0,0,0,8.091.639c.053-.256.116-.69.161-.95.469-2.738,1.1-6.9,1.652-10.449ZM21.78,60.527s0,0,0,0h0v0" transform="translate(0 -46.202)" fill="#f7f7f7"/>
    </g>
  </g>
</svg>
