<svg xmlns="http://www.w3.org/2000/svg" xmlns:xlink="http://www.w3.org/1999/xlink" width="120.542" height="97.126" viewBox="0 0 120.542 97.126">
  <defs>
    <filter id="Path_264669" x="18.839" y="7.842" width="94.091" height="89.284" filterUnits="userSpaceOnUse">
      <feOffset input="SourceAlpha"/>
      <feGaussianBlur stdDeviation="3" result="blur"/>
      <feFlood flood-opacity="0.161"/>
      <feComposite operator="in" in2="blur"/>
      <feComposite in="SourceGraphic"/>
    </filter>
    <clipPath id="clip-path">
      <rect id="Rectangle_4935" data-name="Rectangle 4935" width="69.764" height="65.114" fill="#fff"/>
    </clipPath>
    <filter id="Path_264673" x="0" y="0" width="47.815" height="48.407" filterUnits="userSpaceOnUse">
      <feOffset input="SourceAlpha"/>
      <feGaussianBlur stdDeviation="3" result="blur-2"/>
      <feFlood flood-opacity="0.161"/>
      <feComposite operator="in" in2="blur-2"/>
      <feComposite in="SourceGraphic"/>
    </filter>
    <clipPath id="clip-path-2">
      <rect id="Rectangle_4936" data-name="Rectangle 4936" width="28.077" height="28.266" fill="#fff"/>
    </clipPath>
    <filter id="Path_264677" x="79.273" y="3.516" width="41.269" height="41.523" filterUnits="userSpaceOnUse">
      <feOffset input="SourceAlpha"/>
      <feGaussianBlur stdDeviation="3" result="blur-3"/>
      <feFlood flood-opacity="0.161"/>
      <feComposite operator="in" in2="blur-3"/>
      <feComposite in="SourceGraphic"/>
    </filter>
    <clipPath id="clip-path-3">
      <rect id="Rectangle_4937" data-name="Rectangle 4937" width="22.172" height="22.11" fill="#fff"/>
    </clipPath>
  </defs>
  <g id="Group_17902" data-name="Group 17902" transform="translate(16 9)" style="mix-blend-mode: normal;isolation: isolate">
    <g id="Group_17892" data-name="Group 17892" transform="translate(-7 0)">
      <g transform="matrix(1, 0, 0, 1, -9, -9)" filter="url(#Path_264669)">
        <path id="Path_264669-2" data-name="Path 264669" d="M45.855,14.715,23.118,66.794a9.829,9.829,0,0,0,10,13.713c15.8-1.6,39.467-4.042,55.872-5.737A10.447,10.447,0,0,0,96.187,58L61.343,12.807a9.066,9.066,0,0,0-15.488,1.908" transform="translate(5.56 7.57)" fill="#f2d224"/>
      </g>
      <g id="Group_17884" data-name="Group 17884" transform="translate(21.769 11.614)" opacity="0.5">
        <g id="Group_17883" data-name="Group 17883">
          <g id="Group_17882" data-name="Group 17882" clip-path="url(#clip-path)">
            <path id="Path_264670" data-name="Path 264670" d="M47.56,18.9a1.636,1.636,0,0,1,.188-.509c.076-.162.159-.373.287-.607l.509-.78c.207-.286.486-.568.772-.9a9.341,9.341,0,0,1,1.113-.906,8.015,8.015,0,0,1,3.314-1.342,8.559,8.559,0,0,1,4.471.43,8.653,8.653,0,0,1,2.241,1.323l.525.445c.161.164.314.342.473.516.331.349.6.713.894,1.081,2.313,2.954,4.946,6.315,7.855,10.028L90.56,53.856l2.9,3.753a9.937,9.937,0,0,1,1.961,4.72,10.032,10.032,0,0,1-8.99,11.347q-2.577.265-5.193.538L70.63,75.306,49.71,77.441l-9.949,1.005-2.425.243-1.2.12-1.283.041a9.26,9.26,0,0,1-4.779-1.5A9.545,9.545,0,0,1,25.755,69.1c.038-.392.038-.789.112-1.172s.156-.765.254-1.139l.394-1.087c.138-.346.288-.664.432-1q.867-1.967,1.709-3.871l6.251-14.118c3.832-8.626,6.952-15.6,9.137-20.4,1.1-2.387,1.957-4.244,2.546-5.521a12.758,12.758,0,0,1,.97-1.889,12.881,12.881,0,0,1-.726,2c-.536,1.3-1.316,3.191-2.318,5.62-2.039,4.869-5.03,11.9-8.752,20.572-1.867,4.336-3.91,9.085-6.1,14.182l-1.678,3.886c-.139.328-.293.663-.419.988l-.342.961c-.083.331-.14.668-.215,1s-.057.683-.091,1.026a8.369,8.369,0,0,0,3.817,7.19,8.035,8.035,0,0,0,4.157,1.285l1.119-.041,1.2-.125,2.424-.254,9.944-1.037,20.915-2.161L81.1,72.907l5.193-.529a8.753,8.753,0,0,0,7.873-9.884,8.7,8.7,0,0,0-1.7-4.137L89.6,54.6,69.462,28.254l-7.7-10.148c-.282-.373-.557-.752-.845-1.064-.143-.162-.279-.33-.424-.484l-.474-.417a7.648,7.648,0,0,0-6.195-1.772,7.734,7.734,0,0,0-3.177,1.162,9.554,9.554,0,0,0-1.1.818c-.287.305-.572.563-.789.826l-.548.721c-.144.216-.243.413-.338.562-.182.3-.287.457-.308.447" transform="translate(-25.747 -13.737)" fill="#fff"/>
          </g>
        </g>
      </g>
      <path id="Path_264671" data-name="Path 264671" d="M55.849,33.252l3.394,20.755a3.406,3.406,0,0,0,6.766-.512l.237-21.221a2.672,2.672,0,0,0-2.974-2.684l-5.087.577a2.672,2.672,0,0,0-2.336,3.086" transform="translate(-8.624 -4.57)" fill="#fff"/>
      <path id="Path_264672" data-name="Path 264672" d="M69.565,73a5.123,5.123,0,1,1-3.871-6.123A5.122,5.122,0,0,1,69.565,73" transform="translate(-9.186 -10.315)" fill="#fff"/>
      <g transform="matrix(1, 0, 0, 1, -9, -9)" filter="url(#Path_264673)">
        <path id="Path_264673-2" data-name="Path 264673" d="M18.223.962,1.292,16.445a3.968,3.968,0,0,0,1.44,6.7c6.091,2,15.223,4.983,21.554,7.049a4.218,4.218,0,0,0,5.406-5.007L24.249,2.8A3.66,3.66,0,0,0,18.223.962" transform="translate(9 9)" fill="#f2d224"/>
      </g>
      <g id="Group_17887" data-name="Group 17887" transform="translate(1.071 1.357)" opacity="0.5">
        <g id="Group_17886" data-name="Group 17886">
          <g id="Group_17885" data-name="Group 17885" clip-path="url(#clip-path-2)">
            <path id="Path_264674" data-name="Path 264674" d="M18.276,2.693c-.019-.018.142-.29.637-.608A3.307,3.307,0,0,1,21.425,1.7a3.6,3.6,0,0,1,1.673.91,4.01,4.01,0,0,1,1.052,2c.387,1.47.826,3.136,1.31,4.975.943,3.7,2.06,8.1,3.3,12.975q.228.919.462,1.862a4.38,4.38,0,0,1-.052,2.254,4.431,4.431,0,0,1-5.659,2.975l-2-.652-4.094-1.335L9.347,25.008l-3.832-1.27-.933-.311-.464-.154-.524-.216a4.1,4.1,0,0,1-1.66-1.474,4.2,4.2,0,0,1-.248-4.1,4.568,4.568,0,0,1,.565-.862l.353-.364.327-.3L4.2,14.821l4.654-4.147c2.853-2.528,5.176-4.557,6.8-5.937a15.958,15.958,0,0,1,2.616-2.044,15.961,15.961,0,0,1-2.268,2.423c-1.519,1.5-3.747,3.63-6.519,6.246L4.943,15.629l-1.25,1.166-.312.3-.254.271a3.428,3.428,0,0,0-.395.628,3.027,3.027,0,0,0,.222,2.93,2.875,2.875,0,0,0,1.179,1.02l.375.15.463.149.937.3,3.842,1.239L17.824,26.4l4.09,1.342,2,.659a3.153,3.153,0,0,0,4.044-2.091,3.133,3.133,0,0,0,.052-1.615l-.436-1.856c-1.136-4.9-2.161-9.318-3.024-13.041-.414-1.856-.789-3.537-1.119-5.021a3.392,3.392,0,0,0-.786-1.733,3.137,3.137,0,0,0-1.356-.852,3.223,3.223,0,0,0-2.253.126c-.495.219-.72.422-.761.373" transform="translate(-1.267 -1.606)" fill="#fff"/>
          </g>
        </g>
      </g>
      <path id="Path_264675" data-name="Path 264675" d="M20.263,8.645l-2.153,8.213a1.375,1.375,0,0,0,2.58.922l3.568-7.79A1.078,1.078,0,0,0,23.6,8.511l-1.972-.622a1.079,1.079,0,0,0-1.368.756" transform="translate(-2.792 -1.211)" fill="#fff"/>
      <path id="Path_264676" data-name="Path 264676" d="M19.128,25.577a2.068,2.068,0,1,1-.424-2.894,2.069,2.069,0,0,1,.424,2.894" transform="translate(-2.38 -3.442)" fill="#fff"/>
      <g transform="matrix(1, 0, 0, 1, -9, -9)" filter="url(#Path_264677)">
        <path id="Path_264677-2" data-name="Path 264677" d="M97.677,6.408,93.836,23.914a3.1,3.1,0,0,0,3.934,3.629c4.789-1.464,11.962-3.67,16.933-5.2a3.3,3.3,0,0,0,1.2-5.63L102.352,4.867a2.859,2.859,0,0,0-4.675,1.54" transform="translate(-5.49 8.36)" fill="#f2d224"/>
      </g>
      <g id="Group_17890" data-name="Group 17890" transform="translate(79.666 4.453)" opacity="0.5">
        <g id="Group_17889" data-name="Group 17889">
          <g id="Group_17888" data-name="Group 17888" clip-path="url(#clip-path-3)">
            <path id="Path_264678" data-name="Path 264678" d="M98.326,7.589c-.03,0-.059-.254.107-.688a2.6,2.6,0,0,1,1.436-1.417,2.867,2.867,0,0,1,1.509-.188,3.22,3.22,0,0,1,1.612.809l3.089,2.571,7.967,6.776,1.135.979a3.573,3.573,0,0,1,1.023,1.519,3.6,3.6,0,0,1-2.363,4.627l-1.573.488-3.215.99L102.71,25.99,99.69,26.9l-.736.221-.365.11-.45.1a3.337,3.337,0,0,1-1.794-.2,3.414,3.414,0,0,1-2.08-2.608,3.659,3.659,0,0,1-.026-.837l.064-.4.076-.338q.155-.661.3-1.3L95.8,16.9c.7-2.895,1.283-5.233,1.716-6.842a9.878,9.878,0,0,1,.8-2.47,9.909,9.909,0,0,1-.3,2.58c-.28,1.643-.726,4.011-1.306,6.932-.3,1.463-.619,3.061-.965,4.773q-.132.644-.269,1.308l-.066.328-.037.273a2.523,2.523,0,0,0,.031.547A2.235,2.235,0,0,0,96.795,26a2.12,2.12,0,0,0,1.141.111l.289-.07.363-.114.734-.231,3.009-.941,6.335-1.96,3.216-.984,1.574-.479a2.322,2.322,0,0,0,1.552-2.974,2.314,2.314,0,0,0-.653-1l-1.111-.989-7.781-6.99L102.5,6.662a2.34,2.34,0,0,0-2.459-.695A2.509,2.509,0,0,0,98.67,7.022c-.223.354-.286.582-.344.567" transform="translate(-94.227 -5.267)" fill="#fff"/>
          </g>
        </g>
      </g>
      <path id="Path_264679" data-name="Path 264679" d="M101.261,11.807l2.323,6.213a1.074,1.074,0,0,0,2.062-.573l-1.228-6.579a.843.843,0,0,0-1.084-.648l-1.539.49a.842.842,0,0,0-.533,1.1" transform="translate(-15.639 -1.573)" fill="#fff"/>
      <path id="Path_264680" data-name="Path 264680" d="M107.96,23.29a1.615,1.615,0,1,1-1.573-1.657,1.616,1.616,0,0,1,1.573,1.657" transform="translate(-16.183 -3.343)" fill="#fff"/>
      <path id="Path_264681" data-name="Path 264681" d="M12.466,95.017c-.022.021-.232-.174-.6-.547a7.24,7.24,0,0,1-.629-.711,11.877,11.877,0,0,1-.762-1A17.775,17.775,0,0,1,8.856,89.91,18.852,18.852,0,0,1,7.172,82.1a17.863,17.863,0,0,1,.306-3.264,11.825,11.825,0,0,1,.282-1.227,7.181,7.181,0,0,1,.281-.906,2.9,2.9,0,0,1,.317-.744c.08.026-.3,1.112-.572,2.928A20.149,20.149,0,0,0,7.578,82.1a20.06,20.06,0,0,0,1.65,7.651,20.059,20.059,0,0,0,1.512,2.838c1,1.544,1.791,2.376,1.727,2.432" transform="translate(-1.108 -11.738)" fill="#f2d224"/>
      <path id="Path_264682" data-name="Path 264682" d="M20.719,96.251A3.173,3.173,0,0,1,20,95.793a7.138,7.138,0,0,1-.79-.621,11.948,11.948,0,0,1-.978-.9,17.666,17.666,0,0,1-2.193-2.691,18.768,18.768,0,0,1-2.959-7.92,17.616,17.616,0,0,1-.11-3.47,11.747,11.747,0,0,1,.145-1.325,7.1,7.1,0,0,1,.189-.987,3.211,3.211,0,0,1,.245-.821c.086.018-.206,1.2-.268,3.147a19.5,19.5,0,0,0,.2,3.4,19.779,19.779,0,0,0,2.9,7.755,19.477,19.477,0,0,0,2.077,2.7c1.322,1.427,2.32,2.13,2.267,2.2" transform="translate(-1.997 -11.907)" fill="#f2d224"/>
      <path id="Path_264683" data-name="Path 264683" d="M115.153,84.872c-.074-.039.584-1.218,1.331-3.248a28.354,28.354,0,0,0,1.057-3.641,27.8,27.8,0,0,0,.442-9.228,28.123,28.123,0,0,0-.7-3.725c-.549-2.093-1.091-3.329-1.014-3.361a3.939,3.939,0,0,1,.43.846,18.78,18.78,0,0,1,.884,2.431,24.888,24.888,0,0,1,.806,3.757,26.019,26.019,0,0,1-.449,9.37,24.836,24.836,0,0,1-1.162,3.663,18.772,18.772,0,0,1-1.113,2.336,3.943,3.943,0,0,1-.509.8" transform="translate(-17.793 -9.53)" fill="#f2d224"/>
      <path id="Path_264684" data-name="Path 264684" d="M123.156,83.628c-.072-.038.456-1,1.02-2.663a20.855,20.855,0,0,0,.762-2.977,20.515,20.515,0,0,0-.054-7.483,20.609,20.609,0,0,0-.8-2.966c-.588-1.653-1.13-2.609-1.058-2.648a2.612,2.612,0,0,1,.432.641,13.4,13.4,0,0,1,.917,1.9,17.992,17.992,0,0,1,.912,3,19.084,19.084,0,0,1,.055,7.637,18.126,18.126,0,0,1-.868,3.008,13.429,13.429,0,0,1-.889,1.91,2.6,2.6,0,0,1-.424.648" transform="translate(-19.009 -10.027)" fill="#f2d224"/>
    </g>
  </g>
</svg>
