<svg xmlns="http://www.w3.org/2000/svg" width="14.618" height="13.363" viewBox="0 0 14.618 13.363">
  <g id="warning_1_" data-name="warning (1)" transform="translate(0 -20.882)">
    <g id="Group_14346" data-name="Group 14346" transform="translate(0 20.882)">
      <path id="Path_263047" data-name="Path 263047" d="M218.976,333.382a.751.751,0,1,0,0,1.5.751.751,0,0,0,0-1.5Z" transform="translate(-211.667 -323.991)" fill="#db5b53"/>
      <path id="Path_263048" data-name="Path 263048" d="M14.262,32.935a2.565,2.565,0,0,0,.006-2.6l-4.706-8.15a2.593,2.593,0,0,0-4.5,0L.349,30.345a2.6,2.6,0,0,0,2.254,3.9H12A2.588,2.588,0,0,0,14.262,32.935Zm-1.022-.589A1.42,1.42,0,0,1,12,33.064H2.6a1.4,1.4,0,0,1-1.226-.7,1.422,1.422,0,0,1,0-1.433l4.712-8.156a1.415,1.415,0,0,1,2.458,0l4.709,8.156A1.4,1.4,0,0,1,13.24,32.346Z" transform="translate(0 -20.882)" fill="#db5b53"/>
      <path id="Path_263049" data-name="Path 263049" d="M218.3,157.2a.817.817,0,0,0-.58.82c.018.237.033.478.051.715.051.9.1,1.791.153,2.7a.551.551,0,0,0,.562.529.562.562,0,0,0,.562-.547c0-.186,0-.358.018-.547.033-.58.069-1.16.1-1.74.018-.376.051-.751.069-1.127a.928.928,0,0,0-.069-.376A.753.753,0,0,0,218.3,157.2Z" transform="translate(-211.182 -153.081)" fill="#db5b53"/>
    </g>
  </g>
</svg>
