<svg id="icn_google_setting" xmlns="http://www.w3.org/2000/svg" width="18.208" height="18.208" viewBox="0 0 18.208 18.208">
  <path id="Path_281728" data-name="Path 281728" d="M17.425,776.146H7.059a3.921,3.921,0,0,1-3.921-3.921V761.859a3.921,3.921,0,0,1,3.921-3.921H17.425a3.921,3.921,0,0,1,3.921,3.921v10.366a3.921,3.921,0,0,1-3.921,3.921" transform="translate(-3.138 -757.938)" fill="#fff"/>
  <g id="Group_33989" data-name="Group 33989" transform="translate(3.694 3.753)">
    <path id="Path_281729" data-name="Path 281729" d="M67.372,811.859a4.771,4.771,0,0,0-.118-1.14H62.021v2.068h3.072a2.724,2.724,0,0,1-1.14,1.808l-.01.069,1.655,1.282.115.011a5.45,5.45,0,0,0,1.66-4.1" transform="translate(-56.447 -806.162)" fill="#3283fc"/>
    <path id="Path_281730" data-name="Path 281730" d="M40.182,826.6a5.312,5.312,0,0,0,3.691-1.35l-1.759-1.362a3.3,3.3,0,0,1-1.932.557,3.355,3.355,0,0,1-3.171-2.316l-.066.006-1.72,1.331-.022.062a5.569,5.569,0,0,0,4.979,3.072" transform="translate(-34.608 -815.452)" fill="#00ac47"/>
    <path id="Path_281731" data-name="Path 281731" d="M34.4,806.2a3.431,3.431,0,0,1-.186-1.1,3.6,3.6,0,0,1,.18-1.1l0-.074-1.742-1.353-.057.027a5.562,5.562,0,0,0,0,5l1.809-1.4" transform="translate(-32 -799.524)" fill="#fb0"/>
    <path id="Path_281732" data-name="Path 281732" d="M40.182,788.325a3.089,3.089,0,0,1,2.155.83l1.573-1.536a5.356,5.356,0,0,0-3.728-1.449,5.57,5.57,0,0,0-4.979,3.072l1.8,1.4a3.369,3.369,0,0,1,3.177-2.316" transform="translate(-34.608 -786.17)" fill="#fe2c25"/>
  </g>
</svg>
