<svg id="icn_google_signin" xmlns="http://www.w3.org/2000/svg" width="30" height="30" viewBox="0 0 30 30">
  <path id="Path_281728" data-name="Path 281728" d="M26.678,787.938H9.6a6.46,6.46,0,0,1-6.46-6.46V764.4a6.46,6.46,0,0,1,6.46-6.46H26.678a6.46,6.46,0,0,1,6.46,6.46v17.079a6.46,6.46,0,0,1-6.46,6.46" transform="translate(-3.138 -757.938)" fill="#fff"/>
  <g id="Group_33989" data-name="Group 33989" transform="translate(-1.355 -1.095)">
    <path id="Path_281729" data-name="Path 281729" d="M70.837,812.6a7.859,7.859,0,0,0-.194-1.877H62.021v3.408h5.061a4.488,4.488,0,0,1-1.878,2.98l-.017.114,2.726,2.112.189.019a8.98,8.98,0,0,0,2.735-6.755" transform="translate(-45.396 -795.931)" fill="#3283fc"/>
    <path id="Path_281730" data-name="Path 281730" d="M43.407,829.5a8.753,8.753,0,0,0,6.081-2.225l-2.9-2.245a5.435,5.435,0,0,1-3.184.918,5.528,5.528,0,0,1-5.224-3.816l-.108.009-2.835,2.194-.037.1a9.176,9.176,0,0,0,8.2,5.061" transform="translate(-26.782 -803.849)" fill="#00ac47"/>
    <path id="Path_281731" data-name="Path 281731" d="M35.959,808.552a5.652,5.652,0,0,1-.306-1.816,5.936,5.936,0,0,1,.3-1.817l-.005-.122-2.87-2.229-.094.045a9.164,9.164,0,0,0,0,8.244l2.98-2.306" transform="translate(-24.559 -790.273)" fill="#fb0"/>
    <path id="Path_281732" data-name="Path 281732" d="M43.407,789.721a5.09,5.09,0,0,1,3.551,1.367l2.592-2.531a8.824,8.824,0,0,0-6.143-2.388,9.177,9.177,0,0,0-8.2,5.061l2.969,2.306a5.551,5.551,0,0,1,5.235-3.816" transform="translate(-26.782 -778.891)" fill="#fe2c25"/>
  </g>
</svg>
