<svg id="icn_apple_setting" xmlns="http://www.w3.org/2000/svg" width="18" height="18" viewBox="0 0 18 18">
  <path id="Path_281735" data-name="Path 281735" d="M17.262,318.318H7.014a3.876,3.876,0,0,1-3.876-3.876V304.194a3.876,3.876,0,0,1,3.876-3.876H17.262a3.876,3.876,0,0,1,3.876,3.876v10.248a3.876,3.876,0,0,1-3.876,3.876" transform="translate(-3.138 -300.318)" fill="#fff"/>
  <g id="Group_33990" data-name="Group 33990" transform="translate(4.2 3.1)">
    <path id="Path_281736" data-name="Path 281736" d="M48.223,346.345a2.592,2.592,0,0,1,1.234-2.174,2.652,2.652,0,0,0-2.089-1.129c-.879-.092-1.731.526-2.179.526s-1.146-.517-1.889-.5a2.783,2.783,0,0,0-2.342,1.428c-1.012,1.753-.257,4.329.713,5.746.485.694,1.052,1.469,1.794,1.441.726-.03,1-.463,1.874-.463s1.123.463,1.88.446c.779-.012,1.27-.7,1.738-1.4a5.738,5.738,0,0,0,.795-1.619,2.5,2.5,0,0,1-1.528-2.3" transform="translate(-40.476 -340.283)"/>
    <path id="Path_281737" data-name="Path 281737" d="M63.618,332.072a2.551,2.551,0,0,0,.583-1.827,2.6,2.6,0,0,0-1.679.869,2.427,2.427,0,0,0-.6,1.76,2.146,2.146,0,0,0,1.694-.8" transform="translate(-57.302 -330.245)"/>
  </g>
</svg>
