<svg id="icn_apple_signin" xmlns="http://www.w3.org/2000/svg" width="30" height="30" viewBox="0 0 30 30">
  <path id="Path_281735" data-name="Path 281735" d="M26.678,330.318H9.6a6.46,6.46,0,0,1-6.46-6.46V306.778a6.46,6.46,0,0,1,6.46-6.46H26.678a6.46,6.46,0,0,1,6.46,6.46v17.079a6.46,6.46,0,0,1-6.46,6.46" transform="translate(-3.138 -300.318)" fill="#fff"/>
  <g id="Group_33990" data-name="Group 33990" transform="translate(-2.624 -2.549)">
    <path id="Path_281736" data-name="Path 281736" d="M53.387,348.553a4.319,4.319,0,0,1,2.056-3.623,4.42,4.42,0,0,0-3.482-1.883c-1.465-.154-2.885.877-3.632.877s-1.911-.862-3.148-.836a4.638,4.638,0,0,0-3.9,2.38c-1.687,2.921-.429,7.215,1.188,9.577.809,1.156,1.754,2.448,2.991,2.4,1.21-.05,1.662-.772,3.123-.772s1.871.772,3.133.743c1.3-.021,2.117-1.161,2.9-2.329a9.563,9.563,0,0,0,1.325-2.7,4.173,4.173,0,0,1-2.547-3.838" transform="translate(-30.85 -330.734)"/>
    <path id="Path_281737" data-name="Path 281737" d="M64.757,333.29a4.252,4.252,0,0,0,.972-3.045,4.325,4.325,0,0,0-2.8,1.448,4.045,4.045,0,0,0-1,2.933,3.577,3.577,0,0,0,2.824-1.335" transform="translate(-44.604 -322.529)"/>
  </g>
</svg>
