<svg xmlns="http://www.w3.org/2000/svg" width="19" height="19.002" viewBox="0 0 19 19.002">
  <g id="icn_facebook_setting" transform="translate(0.5 0.5)">
    <path id="Exclusion_1" data-name="Exclusion 1" d="M22424.426,2217h-3.547a3.881,3.881,0,0,1-3.879-3.874v-10.248a3.884,3.884,0,0,1,3.879-3.879h10.242a3.884,3.884,0,0,1,3.879,3.879v10.248a3.881,3.881,0,0,1-3.879,3.874h-3.738v-6.734h2.207l.422-2.736h-2.629v-1.779a1.365,1.365,0,0,1,1.549-1.475h1.193v-2.331a14.54,14.54,0,0,0-2.123-.186,3.335,3.335,0,0,0-3.576,3.682v2.089h-2.4v2.736h2.4V2217Z" transform="translate(-22417 -2198.998)" fill="#f7f7f7" stroke="rgba(0,0,0,0)" stroke-width="1"/>
  </g>
</svg>
