<svg id="icn_manage_payment" xmlns="http://www.w3.org/2000/svg" width="20" height="20" viewBox="0 0 20 20">
  <g id="edit-2">
    <path id="Vector" d="M15.613,1.254H.625A.63.63,0,0,1,0,.627.63.63,0,0,1,.625,0H15.613a.63.63,0,0,1,.625.627A.63.63,0,0,1,15.613,1.254Z" transform="translate(1.881 17.073)" fill="#fff"/>
    <path id="Vector-2" data-name="Vector" d="M5.983,1.232C4.361-.39,2.772-.432,1.108,1.232L.1,2.244a.348.348,0,0,0-.084.334A6.8,6.8,0,0,0,4.637,7.2a.42.42,0,0,0,.1.017.335.335,0,0,0,.242-.1l1-1.012A3.456,3.456,0,0,0,7.213,3.691,3.443,3.443,0,0,0,5.983,1.232Z" transform="translate(9.852 1.678)" fill="#fff"/>
    <path id="Vector-3" data-name="Vector" d="M10.132,4.582c-.242-.117-.477-.234-.7-.368-.184-.109-.36-.226-.535-.351a5.049,5.049,0,0,1-.468-.36,1.02,1.02,0,0,1-.142-.125,7.072,7.072,0,0,1-.861-.87A1.019,1.019,0,0,1,7.3,2.358a4.864,4.864,0,0,1-.351-.46A4.591,4.591,0,0,1,6.62,1.4c-.134-.226-.251-.452-.368-.686C6.135.468,6.043.226,5.959,0L.708,5.251a1.006,1.006,0,0,0-.234.46l-.452,3.2a1.714,1.714,0,0,0,.426,1.463,1.664,1.664,0,0,0,1.171.452,1.828,1.828,0,0,0,.3-.025l3.211-.452a.931.931,0,0,0,.46-.234l5.251-5.251C10.608,4.783,10.382,4.691,10.132,4.582Z" transform="translate(2.922 5.021)" fill="#fff"/>
    <path id="Vector-4" data-name="Vector" d="M0,0H20V20H0Z" transform="translate(20 20) rotate(180)" fill="none" opacity="0"/>
  </g>
</svg>
