<svg id="icn_privacy_policy" xmlns="http://www.w3.org/2000/svg" width="20" height="20" viewBox="0 0 20 20">
  <path id="Path_295486" data-name="Path 295486" d="M11.875,0H2.292A2.29,2.29,0,0,0,0,2.292V15.208A2.29,2.29,0,0,0,2.292,17.5H9.083a7.253,7.253,0,0,1-1.167-3.917V11.55a.805.805,0,0,1-.417.117H3.333a.833.833,0,0,1,0-1.667H7.5a.813.813,0,0,1,.425.117,2.445,2.445,0,0,1,.892-1.783H3.333a.833.833,0,1,1,0-1.667h7.5a.837.837,0,0,1,.775.525l2.375-.808a.662.662,0,0,1,.183-.05V2.292A2.29,2.29,0,0,0,11.875,0ZM6.667,5H3.333a.833.833,0,0,1,0-1.667H6.667A.833.833,0,1,1,6.667,5Z" fill="#f7f7f7"/>
  <path id="Path_295487" data-name="Path 295487" d="M21.351,11.032,16.977,9.544a.836.836,0,0,0-.538,0l-4.375,1.488a.834.834,0,0,0-.565.789V15.17c0,4.222,4.682,6.263,4.882,6.348a.845.845,0,0,0,.327.066.824.824,0,0,0,.327-.067c.2-.085,4.882-2.124,4.882-6.347V11.822a.832.832,0,0,0-.565-.789Zm-1.685,3.134-2.5,3.333a.83.83,0,0,1-.607.331l-.059,0a.829.829,0,0,1-.589-.244l-1.667-1.667a.833.833,0,0,1,1.178-1.178l.987.987,1.923-2.565a.833.833,0,0,1,1.333,1Z" transform="translate(-1.916 -1.583)" fill="#f7f7f7"/>
</svg>
