<svg id="icn_remove_payment" xmlns="http://www.w3.org/2000/svg" width="20" height="20" viewBox="0 0 20 20">
  <g id="trush-square">
    <path id="Vector" d="M0,0H20V20H0Z" fill="none" opacity="0"/>
    <path id="Vector-2" data-name="Vector" d="M11.825,0H4.842A4.447,4.447,0,0,0,0,4.842v6.975a4.45,4.45,0,0,0,4.842,4.85h6.975a4.447,4.447,0,0,0,4.842-4.842V4.842A4.437,4.437,0,0,0,11.825,0Zm-.358,11.467c-.05.708-.108,1.592-1.708,1.592H6.908c-1.592,0-1.658-.883-1.708-1.592l-.258-3.3a.783.783,0,0,1,.2-.583A.75.75,0,0,1,5.7,7.342h5.267a.757.757,0,0,1,.758.817Zm.867-4.95h-.05c-.867-.083-1.658-.142-2.417-.175-1.017-.05-2.033-.067-3.058-.025-.5.025-1.008.058-1.508.108l-.908.092H4.333a.568.568,0,0,1-.058-1.133l.908-.092c.358-.033.708-.058,1.067-.075l.067-.392A1.252,1.252,0,0,1,7.758,3.608H8.917a1.255,1.255,0,0,1,1.442,1.225l.067.4c.625.033,1.267.083,1.967.15a.568.568,0,0,1-.058,1.133Z" transform="translate(1.667 1.667)" fill="#f7f7f7"/>
  </g>
</svg>
