<svg id="icn_payment_wallet" xmlns="http://www.w3.org/2000/svg" width="30" height="30" viewBox="0 0 30 30">
  <circle id="Ellipse_1439" data-name="Ellipse 1439" cx="15" cy="15" r="15" fill="#f7f7f7" opacity="0.099"/>
  <g id="vuesax_twotone_wallet-money" data-name="vuesax/twotone/wallet-money" transform="translate(-102 -373)">
    <g id="wallet-money" transform="translate(108 380)">
      <g id="Group_100" data-name="Group 100" transform="translate(2.618 8.021)" opacity="0.4">
        <path id="Vector" d="M5.214,0V1.48a2.452,2.452,0,0,1-2.6,2.268A2.459,2.459,0,0,1,0,1.48V0A2.364,2.364,0,0,0,2.61,2.144,2.366,2.366,0,0,0,5.214,0Z" transform="translate(0.007 4.273)" fill="none" stroke="#f7f7f7" stroke-linecap="round" stroke-linejoin="round" stroke-width="1"/>
        <path id="Vector-2" data-name="Vector" d="M5.221,2.26a1.913,1.913,0,0,1-.277.992A2.68,2.68,0,0,1,2.61,4.4,2.7,2.7,0,0,1,.277,3.252,1.913,1.913,0,0,1,0,2.26,2.118,2.118,0,0,1,.758.664,2.783,2.783,0,0,1,2.6,0,2.821,2.821,0,0,1,4.448.664,2.073,2.073,0,0,1,5.221,2.26Z" transform="translate(0 0.007)" fill="none" stroke="#f7f7f7" stroke-linecap="round" stroke-linejoin="round" stroke-width="1"/>
        <path id="Vector-3" data-name="Vector" d="M5.214,2.268V4.273a2.361,2.361,0,0,1-2.6,2.144A2.373,2.373,0,0,1,0,4.273V2.268A2.455,2.455,0,0,1,2.61,0,2.821,2.821,0,0,1,4.455.664,2.133,2.133,0,0,1,5.214,2.268Z" transform="translate(0.007)" fill="none" stroke="#f7f7f7" stroke-linecap="round" stroke-linejoin="round" stroke-width="1"/>
      </g>
      <path id="Vector-4" data-name="Vector" d="M3.74.744v1.5a.749.749,0,0,1-.729.744H1.582A1.555,1.555,0,0,1,.007,1.626,1.464,1.464,0,0,1,.444.437,1.453,1.453,0,0,1,1.494,0H3.011A.749.749,0,0,1,3.74.744Z" transform="translate(12.302 7.255)" fill="none" stroke="#f7f7f7" stroke-linecap="round" stroke-linejoin="round" stroke-width="1.5"/>
      <path id="Vector-5" data-name="Vector" d="M0,5.1V3.646A3.393,3.393,0,0,1,3.055.044,3.881,3.881,0,0,1,3.646,0h6.563a3.334,3.334,0,0,1,.547.036,3.4,3.4,0,0,1,3.1,3.609V4.7H12.337A1.5,1.5,0,0,0,10.85,6.329a1.555,1.555,0,0,0,1.575,1.364h1.429V8.75A3.444,3.444,0,0,1,10.208,12.4H8.385" transform="translate(1.458 2.552)" fill="none" stroke="#f7f7f7" stroke-linecap="round" stroke-linejoin="round" stroke-width="1.5"/>
      <path id="Vector-6" data-name="Vector" d="M0,0H17.5V17.5H0Z" transform="translate(17.5 17.5) rotate(180)" fill="none" opacity="0"/>
    </g>
  </g>
</svg>
