<svg id="icn_update_info" xmlns="http://www.w3.org/2000/svg" width="20" height="20.002" viewBox="0 0 20 20.002">
  <path id="Path_295480" data-name="Path 295480" d="M6.1,6.6a4.1,4.1,0,1,1,4.1,4.1A4.1,4.1,0,0,1,6.1,6.6Zm10.307,7.878a.41.41,0,0,0-.13-.246,5.494,5.494,0,0,0-4.031-1.477h-4.1C3.977,12.757,2.5,15.8,2.5,18.419c0,2.339,1.241,3.57,3.59,3.57h5.334a.279.279,0,0,0,.215-.092.332.332,0,0,0,.092-.221V19.937a1.539,1.539,0,0,1,.451-1.087L16.317,14.7A.317.317,0,0,0,16.406,14.481ZM13.27,19.937V22.5h2.564l4.656-4.635-2.584-2.584Zm8.932-5.22-1.149-1.149a1.026,1.026,0,0,0-1.446,0l-.984.995,2.584,2.584.995-.984a1.026,1.026,0,0,0,0-1.445Z" transform="translate(-2.5 -2.5)" fill="#f7f7f7"/>
</svg>
