<svg id="icn_terms_condition" xmlns="http://www.w3.org/2000/svg" width="19.999" height="20" viewBox="0 0 19.999 20">
  <path id="Path_295484" data-name="Path 295484" d="M10.944,16.019a5.076,5.076,0,0,1,8.12-4.061c.048-.708.079-1.5.08-2.386a30.524,30.524,0,0,0-.389-5.061A5.351,5.351,0,0,0,14.633.389,30.475,30.475,0,0,0,9.571,0,30.529,30.529,0,0,0,4.51.389,5.351,5.351,0,0,0,.389,4.51,30.567,30.567,0,0,0,0,9.571a30.572,30.572,0,0,0,.389,5.062A5.351,5.351,0,0,0,4.51,18.754a30.568,30.568,0,0,0,5.062.389c.886,0,1.678-.031,2.386-.08a5.037,5.037,0,0,1-1.014-3.045ZM4.842,4.626H14.3a1.108,1.108,0,0,1,0,2.216H4.842a1.108,1.108,0,1,1,0-2.216Zm0,6.842a1.108,1.108,0,0,1,0-2.216h5.553a1.108,1.108,0,0,1,0,2.216Z" transform="translate(0)" fill="#f7f7f7"/>
  <path id="Path_295485" data-name="Path 295485" d="M312.141,308.16a3.981,3.981,0,1,0,3.981,3.981A3.981,3.981,0,0,0,312.141,308.16Zm.742,5.957a.742.742,0,0,1-1.484,0v-1.958a.742.742,0,0,1,1.484,0Zm-.031-3.547a.419.419,0,0,1-.323.323,2.411,2.411,0,0,1-.4.03,2.375,2.375,0,0,1-.4-.03.419.419,0,0,1-.323-.323,2.411,2.411,0,0,1-.03-.4,2.375,2.375,0,0,1,.03-.4.419.419,0,0,1,.323-.323,2.411,2.411,0,0,1,.4-.03,2.371,2.371,0,0,1,.4.03.419.419,0,0,1,.323.323,2.413,2.413,0,0,1,.031.4A2.37,2.37,0,0,1,312.853,310.57Z" transform="translate(-296.123 -296.123)" fill="#f7f7f7"/>
</svg>
