<svg id="icn_language_setting" xmlns="http://www.w3.org/2000/svg" width="20" height="20" viewBox="0 0 20 20">
  <g id="translate">
    <path id="Vector" d="M0,0H20V20H0Z" transform="translate(20 20) rotate(180)" fill="none" opacity="0"/>
    <path id="Vector-2" data-name="Vector" d="M5.775,0H2.517A2.22,2.22,0,0,0,0,2.517V5.783C0,7.5.833,8.333,2.517,8.292H5.783A2.156,2.156,0,0,0,8.292,5.775V2.517C8.333.833,7.5,0,5.775,0Zm.067,6.467a2.46,2.46,0,0,1-1.575-.6,3.083,3.083,0,0,1-1.817.6.625.625,0,1,1,0-1.25A1.933,1.933,0,0,0,4.267,3.833H2.45a.625.625,0,1,1,0-1.25H3.525a.619.619,0,0,1,1.233,0H5.833a.625.625,0,1,1,0,1.25H5.558A3.332,3.332,0,0,1,5.117,4.95a1.215,1.215,0,0,0,.725.267.625.625,0,0,1,0,1.25Z" transform="translate(1.667 1.667)" fill="#fff"/>
    <path id="Vector-3" data-name="Vector" d="M6.458,7.083A6.469,6.469,0,0,1,0,.625.63.63,0,0,1,.625,0,.63.63,0,0,1,1.25.625,5.218,5.218,0,0,0,5.275,5.7L5.05,5.325a.626.626,0,1,1,1.075-.642L7,6.142a.621.621,0,0,1,.008.625A.651.651,0,0,1,6.458,7.083Z" transform="translate(1.042 11.875)" fill="#fff"/>
    <path id="Vector-4" data-name="Vector" d="M6.464,7.083a.63.63,0,0,1-.625-.625A5.218,5.218,0,0,0,1.814,1.383l.225.375A.626.626,0,0,1,.964,2.4L.089.942A.621.621,0,0,1,.08.317.651.651,0,0,1,.63,0,6.469,6.469,0,0,1,7.089,6.458.63.63,0,0,1,6.464,7.083Z" transform="translate(11.87 1.042)" fill="#fff"/>
    <path id="Vector-5" data-name="Vector" d="M4.233,0A4.233,4.233,0,1,0,8.467,4.233,4.234,4.234,0,0,0,4.233,0ZM6.3,6.242a.628.628,0,0,1-.842-.283l-.142-.283H3.158l-.142.283a.627.627,0,0,1-.558.342A.63.63,0,0,1,1.9,5.392L3.683,1.833a.633.633,0,0,1,.558-.342.626.626,0,0,1,.558.35L6.583,5.4A.636.636,0,0,1,6.3,6.242Z" transform="translate(9.867 9.875)" fill="#fff"/>
    <path id="Vector-6" data-name="Vector" d="M0,.908H.908L.45,0Z" transform="translate(13.65 13.392)" fill="#fff"/>
  </g>
</svg>
