<svg id="icn_email_address_home" xmlns="http://www.w3.org/2000/svg" width="30" height="30" viewBox="0 0 30 30">
  <g id="Group_24926" data-name="Group 24926" transform="translate(-355 -155)">
    <circle id="Ellipse_1439" data-name="Ellipse 1439" cx="15" cy="15" r="15" transform="translate(355 155)" fill="#f7f7f7" opacity="0.099"/>
    <g id="vuesax_twotone_sms" data-name="vuesax/twotone/sms" transform="translate(-196 -92)" opacity="0.998">
      <g id="sms" transform="translate(556 252)">
        <path id="Vector" d="M12.513,14.2H4.171C1.668,14.2,0,12.944,0,10.021V4.175C0,1.253,1.668,0,4.171,0h8.342c2.5,0,4.171,1.253,4.171,4.175v5.846C16.684,12.944,15.015,14.2,12.513,14.2Z" transform="translate(1.658 2.902)" fill="none" stroke="#f7f7f7" stroke-width="1.5"/>
        <path id="Vector-2" data-name="Vector" d="M8.291,0,5.7,2.073a2.625,2.625,0,0,1-3.109,0L0,0" transform="translate(5.855 7.506)" fill="none" stroke="#f7f7f7" stroke-width="1.5" opacity="0.4"/>
        <path id="Vector-3" data-name="Vector" d="M0,0H20V20H0Z" fill="none" opacity="0"/>
      </g>
    </g>
  </g>
</svg>
