<svg id="icn_facebook_signin" xmlns="http://www.w3.org/2000/svg" width="30" height="30" viewBox="0 0 30 30">
  <path id="Path_281733" data-name="Path 281733" d="M23.54,30H6.46A6.46,6.46,0,0,1,0,23.54V6.46A6.46,6.46,0,0,1,6.46,0H23.54A6.46,6.46,0,0,1,30,6.46V23.54A6.46,6.46,0,0,1,23.54,30" fill="#1877f2"/>
  <path id="Path_281734" data-name="Path 281734" d="M43.964,22.012h1.991V18.127a24.274,24.274,0,0,0-3.534-.308c-3.606,0-5.963,2.185-5.963,6.142v3.478H32.45V32h4.008V43.225h4.933V32H45.07l.7-4.563H41.392V24.478a2.282,2.282,0,0,1,2.573-2.465" transform="translate(-24.082 -13.225)" fill="#fff"/>
</svg>
