<svg id="icn_change_password" xmlns="http://www.w3.org/2000/svg" width="20" height="20" viewBox="0 0 20 20">
  <path id="Path_295481" data-name="Path 295481" d="M11.458,5.833h-.625V4.167a4.167,4.167,0,1,0-8.333,0V5.833H1.875A1.878,1.878,0,0,0,0,7.708v7.083a1.878,1.878,0,0,0,1.875,1.875h8.167a2.322,2.322,0,0,1,.658-1.233,2.489,2.489,0,0,1-.192-2.658,6.02,6.02,0,0,1,2.825-2.642V7.708A1.878,1.878,0,0,0,11.458,5.833ZM4.167,4.167a2.5,2.5,0,1,1,5,0V5.833h-5Z" fill="#f7f7f7"/>
  <path id="Path_295482" data-name="Path 295482" d="M21.688,19.858a.834.834,0,0,0-1.129.336,2.688,2.688,0,0,1-3.806,1.019l.4-.4a.625.625,0,0,0-.442-1.067H14.625a.625.625,0,0,0-.625.625v2.083a.626.626,0,0,0,.386.577.615.615,0,0,0,.239.048.622.622,0,0,0,.442-.183l.477-.477a4.385,4.385,0,0,0,6.48-1.434A.834.834,0,0,0,21.688,19.858Z" transform="translate(-2.334 -3.292)" fill="#f7f7f7"/>
  <path id="Path_295483" data-name="Path 295483" d="M21.989,13.756a.624.624,0,0,0-.681.136l-.477.477a4.381,4.381,0,0,0-6.482,1.444.833.833,0,0,0,1.468.789,2.683,2.683,0,0,1,3.8-1.024l-.4.4a.625.625,0,0,0,.442,1.067H21.75a.625.625,0,0,0,.625-.625V14.333A.626.626,0,0,0,21.989,13.756Z" transform="translate(-2.375 -2.25)" fill="#f7f7f7"/>
</svg>
