<svg id="icn_browser_tab" xmlns="http://www.w3.org/2000/svg" xmlns:xlink="http://www.w3.org/1999/xlink" width="24" height="24" viewBox="0 0 24 24">
  <defs>
    <linearGradient id="linear-gradient" x1="0.026" y1="0.029" x2="0.976" y2="0.981" gradientUnits="objectBoundingBox">
      <stop offset="0" stop-color="#e64747"/>
      <stop offset="1" stop-color="#1a66ff"/>
    </linearGradient>
  </defs>
  <rect id="Rectangle_17806" data-name="Rectangle 17806" width="24" height="24" rx="3" opacity="0.998" fill="url(#linear-gradient)"/>
  <path id="Path_265462" data-name="Path 265462" d="M17.273,52.748c-.189,1.173-.861,5.353-1.014,6.3l-.024.152v.013l0,.007a.586.586,0,0,1-1.162-.077l-.048-1.224c-.005-.1-.013-.362-.018-.462a1.864,1.864,0,0,0-3.671-.478l-.12.446-.638,2.38c-.025.094-.1.356-.12.446a.584.584,0,0,1-.336.4.579.579,0,0,1-.8-.506v-.019l-.007-.154c-.048-1.046-.131-3.111-.182-4.167a3.256,3.256,0,0,0-2.651-3l-.214-.032c-.123-.018-.252-.015-.376-.023-.191,0-5.89,0-5.89,0v1.744s1.96-.014,2.376-.014v5.842H4.441V54.485c.514,0,1,0,1.41,0a1.623,1.623,0,0,1,.6.111,1.485,1.485,0,0,1,.915,1.376c.031,1.147.055,3.151.106,4.282a2.43,2.43,0,0,0,2.4,2.306A2.458,2.458,0,0,0,12.3,60.589c.2-.732.521-1.943.721-2.676.026-.092.077-.288.11-.41,0,.063.006.139.007.184.007.207.051,1.312.059,1.546a2.465,2.465,0,0,0,4.876.385c.032-.154.07-.416.1-.573.282-1.65.661-4.156,1-6.3Zm-4.149,4.688s0,0,0,0h0v0" transform="translate(1.74 -45.789)" fill="#f7f7f7"/>
</svg>
